<?xml version="1.0" encoding="utf-8"?>
<!-- Generator: Adobe Illustrator 26.5.0, SVG Export Plug-In . SVG Version: 6.00 Build 0)  -->
<svg version="1.1" id="Camada_1" xmlns="http://www.w3.org/2000/svg" xmlns:xlink="http://www.w3.org/1999/xlink" x="0px" y="0px"
	 viewBox="0 0 300 200" style="enable-background:new 0 0 300 200;" xml:space="preserve">
<style type="text/css">
	.st0{fill:#617E46;}
	.st1{fill-rule:evenodd;clip-rule:evenodd;fill:#FFFFFF;stroke:#617E46;stroke-width:0.6;stroke-miterlimit:10;}
	.st2{fill-rule:evenodd;clip-rule:evenodd;fill:#EE9384;stroke:#617E46;stroke-width:0.6;stroke-miterlimit:10;}
	.st3{fill-rule:evenodd;clip-rule:evenodd;fill:#EEBE53;stroke:#617E46;stroke-width:0.6;stroke-miterlimit:10;}
	.st4{fill-rule:evenodd;clip-rule:evenodd;fill:#7CC2DE;stroke:#617E46;stroke-width:0.6;stroke-miterlimit:10;}
	.st5{fill-rule:evenodd;clip-rule:evenodd;fill:#B1C110;stroke:#617E46;stroke-width:0.6;stroke-miterlimit:10;}
	.st6{fill-rule:evenodd;clip-rule:evenodd;fill:#FFF1D2;stroke:#617E46;stroke-width:0.6;stroke-miterlimit:10;}
	.st7{fill-rule:evenodd;clip-rule:evenodd;fill:#F9FCFD;stroke:#617E46;stroke-width:0.6;stroke-miterlimit:10;}
	.st8{fill:#FFFFFF;stroke:#617E46;stroke-width:0.6;stroke-miterlimit:10;}
</style>
<g>
	<path class="st0" d="M165.1,163.49c0.73,0.68,1.38,1.18,1.84,1.36l-0.1,0.22c-0.62-0.29-1.31-0.74-2.02-1.29
		c-0.82,0.81-1.79,1.42-2.79,1.42c-1.31,0-3.27-0.65-3.27-2.76c0-1.18,0.91-2.19,1.91-3.21c-0.8-1.26-1.31-2.53-1.31-3.61
		c0-1.48,0.62-2.64,2.66-2.64c1.46,0,2.21,1.03,2.21,2.53c0,1.25-1.29,2.61-2.49,3.92c0.88,1.38,2.02,2.75,3.07,3.78
		c1.24-1.27,2.04-2.9,2.04-2.9l0.29,0.04C166.91,160.99,166.14,162.37,165.1,163.49z M164.48,163.5c-1.17-0.97-2.35-2.2-3.28-3.49
		c-0.83,0.94-1.5,1.85-1.49,2.66c0.02,1.31,0.99,1.98,2.29,1.98C162.91,164.66,163.76,164.16,164.48,163.5z M161.26,158.63
		c1.02-1.05,1.97-2.13,1.97-3.43c0-1.12-0.66-1.69-1.22-1.69c-1.26,0-1.75,1.02-1.75,2.14C160.26,156.5,160.65,157.55,161.26,158.63
		z"/>
</g>
<g>
	<path class="st0" d="M41.77,168.43v0.39h-4.59v-0.39c0.77,0,1.4-0.63,1.4-1.41v-17.59l-6.92,13.63c1.11,1.96,2.17,3.61,3.3,3.69
		l0.08,0.3c-2.09,0.23-3.56-1.42-4.72-3.27h-0.02l-0.22-0.4c-0.35-0.59-0.68-1.19-0.99-1.75l-5.24-9.24
		c-0.11-0.16-0.22-0.33-0.33-0.51c-0.48-0.86-0.97-1.74-1.46-2.58v17.71c0,0.78,0.63,1.41,1.4,1.41v0.39h-3.69v-0.39
		c0.71,0,1.29-0.58,1.29-1.3v-19.45c-1.15-1.75-2.31-2.99-3.47-2.85l-0.1-0.38c2.42-0.28,4.04,1.18,5.32,3.05h0.04l0.27,0.48
		c0.47,0.75,0.9,1.54,1.31,2.3l6.03,10.62c0,0,0,0,0,0l0.68,1.2l7.42-14.61h3.06v0.39c-0.68,0-1.24,0.56-1.24,1.25v17.89
		C40.37,167.8,41,168.43,41.77,168.43z"/>
	<path class="st0" d="M63.28,168.82h-4.69v-0.39c0.68,0,1.15-0.68,0.92-1.32l-1.91-5.31h-9.18l-1.92,5.32
		c-0.23,0.64,0.24,1.32,0.92,1.32v0.39h-3.88v-0.39c0.83,0,1.58-0.53,1.87-1.32l7.07-19.61h1.81l7.11,19.6
		c0.29,0.79,1.04,1.32,1.88,1.32V168.82z M57.24,160.79l-4.22-11.75l-4.24,11.75H57.24z"/>
	<path class="st0" d="M82.8,168.97c-6.44,0.16-3.45-9.7-8.15-10.35c-0.56,0.02-1.13,0.02-1.7,0.02h-4.73V167
		c0,0.78,0.63,1.41,1.4,1.41v0.39h-4.56v-0.39c0.75,0,1.36-0.61,1.36-1.37v-17.79c0-0.76-0.61-1.37-1.36-1.37v-0.39h7.98
		c4.64-0.2,7.9,0.63,7.9,5.58c0,3.6-1.7,4.88-4.02,5.33c4.65,2.33,2.42,10.22,5.81,10.2L82.8,168.97z M68.23,157.63h4.52
		c3.8,0,6.39-0.01,6.39-4.57c0-4.06-2.5-4.57-6.09-4.57h-4.82V157.63z"/>
	<path class="st0" d="M101.61,161.72c-0.7,2.67-3.21,7.51-8.31,7.51c-6.31,0-8.86-4.94-8.86-11.04c0-6.1,2.87-11.04,8.86-11.04
		c3.73,0,6.14,1.73,7.5,4.4c0.29,0.56-0.11,1.23-0.74,1.23h-0.01c-0.33,0-0.63-0.2-0.76-0.5c-1.04-2.4-2.92-4.13-5.98-4.13
		c-5.04,0-7.05,5.18-7.05,10.04s1.76,10.03,7.05,10.03c4.12,0,7.29-4.05,7.89-6.62C101.27,161.29,101.77,161.11,101.61,161.72z"/>
	<path class="st0" d="M117.97,147.51l0.7,2.57h-0.39c0-0.48-0.69-1.56-1.55-1.56h-9.33v9.15h6.56c0.77,0,1.4-0.63,1.4-1.41h0.39
		v3.83h-0.39c0-0.78-0.63-1.41-1.4-1.41h-6.56v9.15h9.28c0.88,0,1.6-1.01,1.6-1.61h0.39l-0.5,2.62h-13.93v-0.39
		c0.75,0,1.36-0.61,1.36-1.37v-17.79c0-0.76-0.61-1.37-1.36-1.37v-0.39H117.97z"/>
	<path class="st0" d="M135.67,166.2l-0.5,2.62h-13.93v-0.39c0.75,0,1.36-0.61,1.36-1.37v-17.75c0-0.78-0.63-1.41-1.4-1.41v-0.39h4.6
		v0.39c-0.77,0-1.4,0.63-1.4,1.41v18.51h9.28c0.88,0,1.48-0.72,1.6-1.61H135.67z"/>
	<path class="st0" d="M154.44,158.18c0,6.1-2.87,11.04-8.86,11.04c-6.31,0-8.86-4.94-8.86-11.04c0-6.1,2.87-11.04,8.86-11.04
		C151.88,147.14,154.44,152.09,154.44,158.18z M152.63,158.18c0-4.86-1.76-10.04-7.05-10.04c-5.04,0-7.05,5.19-7.05,10.04
		s1.76,10.03,7.05,10.03C150.62,168.22,152.63,163.04,152.63,158.18z"/>
</g>
<g>
	<path class="st0" d="M189.74,171.82l-0.08,0.35c-3.27,0.33-5.18-5.43-5.97-7.63l-1.37-3.8c-1.91-1.15-4.26-0.68-5.8-0.33
		c-0.99,0.22-1.83,0.25-2.54,0.12l-2.37,6.59c-0.23,0.64,0.24,1.32,0.92,1.32v0.39h-3.9v-0.39c0.84,0,1.59-0.53,1.88-1.33l2.49-6.89
		c-1.1-0.51-1.75-1.48-2.05-2.63l0.44-0.25c0.3,0.96,0.89,1.77,1.84,2.22l4.34-12.05h1.81l6.98,19.24
		C187.31,169.15,188.49,171.56,189.74,171.82z M181.94,159.67l-3.82-10.64l-3.9,10.83c0.59,0.11,1.28,0.11,2.08-0.02
		C177.89,159.59,179.92,158.79,181.94,159.67z"/>
	<path class="st0" d="M207.02,168.97c-6.44,0.16-3.45-9.7-8.15-10.35c-0.56,0.02-1.13,0.02-1.7,0.02h-4.73V167
		c0,0.78,0.63,1.41,1.4,1.41v0.39h-4.56v-0.39c0.75,0,1.36-0.61,1.36-1.37v-17.79c0-0.76-0.61-1.37-1.36-1.37v-0.39h7.98
		c4.64-0.2,7.9,0.63,7.9,5.58c0,3.6-1.7,4.88-4.02,5.33c4.66,2.33,2.42,10.22,5.81,10.2L207.02,168.97z M192.44,157.63h4.53
		c3.8,0,6.39-0.01,6.39-4.57c0-4.06-2.5-4.57-6.09-4.57h-4.83V157.63z"/>
	<path class="st0" d="M223.07,149.16l-6.64,10.59v7.27c0,0.78,0.63,1.41,1.4,1.41v0.39h-4.6v-0.39c0.77,0,1.4-0.63,1.4-1.41v-7.2
		l-0.02,0l-7.31-11.64c-1.83-2.64-2.79-2.19-4.27-2.33l-0.05-0.31c2.89-0.42,4.57,0.25,5.79,1.96h0l0.04,0.07
		c0.18,0.26,0.36,0.54,0.53,0.85l6.51,10.48l6.22-9.92c0.3-0.48-0.04-1.1-0.6-1.1v-0.39h3.87v0.39
		C224.42,147.9,223.56,148.37,223.07,149.16z"/>
	<path class="st0" d="M242.43,168.82h-4.69v-0.39c0.68,0,1.15-0.68,0.92-1.32l-1.91-5.31h-9.18l-1.92,5.32
		c-0.23,0.64,0.24,1.32,0.92,1.32v0.39h-3.88v-0.39c0.84,0,1.58-0.53,1.87-1.32l7.07-19.61h1.81l7.12,19.6
		c0.29,0.79,1.04,1.32,1.88,1.32V168.82z M236.39,160.79l-4.22-11.75l-4.24,11.75H236.39z"/>
	<path class="st0" d="M262.06,147.51v0.39c-0.77,0-1.4,0.63-1.4,1.41v19.52h-1l-13.14-19.81v18.11c0,0.72,0.58,1.31,1.3,1.31v0.39
		h-3.69v-0.39c0.77,0,1.39-0.63,1.39-1.4v-19.42c-1.24-1.6-2.45-2.7-3.57-2.48l-0.12-0.37c2.43-0.46,4.17,0.93,5.59,2.75h0
		l0.02,0.02c0.98,1.26,1.81,2.72,2.61,3.93c0.01,0.01,0.01,0.02,0.02,0.03l9.6,14.47V149.3c0-0.78-0.63-1.41-1.4-1.41v-0.39H262.06z
		"/>
	<path class="st0" d="M282.11,167.93c-0.5,0.98-1.25,2.83-3.61,2.83c-3.3,0-6.21-1.94-10.45-1.94h-3.16v-0.39
		c0.75,0,1.36-0.61,1.36-1.37v-17.79c0-0.76-0.61-1.37-1.36-1.37v-0.39h13.92l0.5,2.57h-0.39c-0.15-0.82-0.69-1.56-1.55-1.56h-9.33
		v9.15h6.56c0.77,0,1.4-0.63,1.4-1.41h0.39v3.83h-0.39c0-0.78-0.63-1.41-1.4-1.41h-6.56v9.15c5.23,0,7.59,1.9,10.36,1.9
		c1.53,0,2.67-0.37,3.39-2L282.11,167.93z"/>
</g>
<g>
	<g>
		<path class="st1" d="M182.23,125.44c8.05-10.09,6.17-28.01-2.41-41.92c-9.46-15.21-21.38-19.55-35.31-19.28
			c-6.54,0.11-12.25,0.84-14.68,1.34c-17.79,4.04-27.31,0.33-36.65-10.13c-0.15-0.31-0.16-0.76,0.05-1.03
			c0.21-0.27,0.48-0.21,0.78-0.05c9.46,8.5,20.65,11.4,30.91,7.34c-11.42-4.45-20.87-16.7-26.32-31.15
			c-0.17-0.42,0.01-0.8,0.24-0.96c0.31-0.18,0.69-0.03,0.85,0.28c6.17,12.02,15.63,23.02,26,27.92
			c-4.86-4.45-8.83-12.61-10.57-19.75c-0.13-0.2-0.09-0.44,0.03-0.69c0.15-0.14,0.31-0.18,0.5-0.1c0.19,0.07,0.4,0.26,0.36,0.49
			c3.62,9.03,9.68,20.05,20.77,19.57c5.19-0.28,9.97-0.02,15.44,0.66c-6.94-6.86-12.62-15.69-16.51-25.57
			c-0.15-0.31-0.16-0.76-0.04-1.02c0.21-0.27,0.44-0.43,0.79-0.39c0.27,0.06,0.59,0.33,0.66,0.66c6,11.6,14.49,23.03,24.99,25.17
			c4.72,0.84,9.38,3.06,13.63,6.27c-7.87-11.78-11.58-26.71-10.18-40.99c0.05-0.58,0.51-0.9,0.95-0.88
			c0.46,0.13,0.83,0.62,0.86,1.19c0,14.33,4.8,28.57,13.22,39.22c-2.23-8.63-1.57-16.39-0.54-21.95c0.84-4.38-0.04-9.89-2.08-15.49
			c0.15-0.94,0.57-1.03,1.32-0.39c3.52,5.98,4.75,12.77,3.9,20.46c-0.26,8.01,0.57,14.55,2.46,19.85c2.32,6.11,3.73,6.16,6.85,0.97
			c5.27-9.17,6.3-21.89,2.19-33.66c-0.17-0.42-0.1-0.89,0.3-1.09c0.31-0.18,0.69-0.03,0.87,0.39c4.9,11.38,5.6,24.42,1.85,35.44
			c5.42-5.9,13.63-5.11,20.2-1.69c0.36,0.04,0.53,0.46,0.52,0.8c0.07,0.33-0.22,0.61-0.47,0.67c-12.42-2.08-19.49,1.32-21.38,10.35
			c-1.06,5,8.89,38.18,7.71,44.68"/>
		<path class="st1" d="M95.79,47.13c-0.08,1.72,0.55,5.57,1.25,6.45c0.12-0.25,0.56-0.68,0.68-0.94c1.26-2.76,0.61-5.47-1.97-8.23
			c-2.22,3.19-2.31,6.16-0.47,8.28c0.34,0.38,0.77,0.75,1.17,1.01C95.6,51.26,95.39,48.58,95.79,47.13L95.79,47.13z"/>
		<path class="st1" d="M133.37,19.19c0.25,2.45,1.67,7.61,2.65,8.55c0.18-0.38,0.66-1.05,0.82-1.53c1.26-4.02-0.09-7.6-3.88-10.68
			c-2.55,4.97-2.22,9.1,0.66,11.58c0.43,0.37,1.1,0.68,1.7,1.01C133.85,24.89,133.11,21.29,133.37,19.19L133.37,19.19z"/>
		<path class="st1" d="M104.59,23.81c-0.47,2.37-0.34,8.03,0.48,9.45c0.29-0.29,0.98-0.77,1.16-1.15c2.45-3.35,2.06-7.36-1.13-12.16
			c-3.94,3.77-4.74,7.92-2.41,11.53c0.39,0.6,0.97,1.28,1.52,1.84C103.5,29.49,103.76,25.69,104.59,23.81L104.59,23.81z"/>
		<path class="st1" d="M138.5,50.2c1.71,0.21,5.37,1.84,6.04,2.95c-0.31,0.18-0.81,0.74-1.04,0.9c-2.84,1.5-5.34-0.03-7.63-4.33
			c3.51-2.89,6.37-2.58,8.19,0.69c0.28,0.51,0.52,1.26,0.74,1.89C142.52,50.61,140.01,49.88,138.5,50.2L138.5,50.2z"/>
		<path class="st1" d="M102.94,51.67c1.9,0.29,5.83,1.97,6.63,3.29c-0.31,0.18-0.89,0.75-1.12,0.92c-3.09,1.55-5.87-0.03-8.25-4.77
			c3.72-3.16,6.88-2.68,8.82,0.78c0.28,0.51,0.55,1.36,0.79,2.11C107.32,52.12,104.62,51.32,102.94,51.67L102.94,51.67z"/>
		<path class="st1" d="M100.81,70.88c1.48-0.88,5.15-1.75,6.17-1.05c-0.18,0.38-0.36,1.21-0.57,1.48c-1.72,3.09-4.36,3.41-7.98,0.75
			c1.78-4.92,4.34-6.47,7.02-4.53c0.4,0.26,0.96,0.82,1.41,1.3C104.31,68.78,101.87,69.63,100.81,70.88L100.81,70.88z"/>
		<path class="st1" d="M91.98,65.43c1.99-0.53,6.47-0.43,7.56,0.59c-0.18,0.38-0.61,1.26-0.9,1.55c-2.6,3.04-5.85,2.58-9.59-1.53
			c2.95-5.16,6.26-6.08,9.14-3.15c0.45,0.48,0.97,1.28,1.46,1.97C96.59,64.02,93.59,64.3,91.98,65.43L91.98,65.43z"/>
		<path class="st1" d="M84.8,54.87c2.24,0.67,6.68,3.5,7.43,5.05c-0.4,0.2-1.14,0.81-1.48,0.88c-3.85,1.25-6.89-1.18-9.17-7.08
			c4.9-2.95,8.55-1.78,10.34,2.63c0.33,0.73,0.53,1.71,0.71,2.58C89.91,56.31,86.8,54.79,84.8,54.87L84.8,54.87z"/>
		<path class="st1" d="M86.55,43.47c1.79,1.9,4.86,6.95,4.88,8.77c-0.38-0.15-1.33-0.07-1.71-0.21c-3.97-1.45-5.9-5.26-5.72-11.55
			c5.64,0.65,8.59,3.9,8.6,8.56c-0.01,0.8-0.22,1.87-0.32,2.68C90.78,47.83,88.44,44.56,86.55,43.47L86.55,43.47z"/>
		<path class="st1" d="M99.85,44.35c1.26,0.19,4,1.56,4.51,2.36c-0.23,0.16-0.58,0.58-0.83,0.63c-2.15,1.02-4.04-0.07-5.6-3.39
			c2.62-2.14,4.79-1.79,6.09,0.67c0.17,0.42,0.37,0.95,0.48,1.49C102.82,44.76,100.94,44.12,99.85,44.35L99.85,44.35z"/>
		<path class="st1" d="M93.81,34.23c1.78,0.99,5.36,4.34,5.76,5.85c-0.34,0.07-1.07,0.34-1.4,0.41c-3.55,0.17-5.86-2.54-7.08-7.97
			c4.69-1.43,7.79,0.43,8.71,4.45c0.22,0.64,0.26,1.65,0.33,2.43C98.05,36.54,95.54,34.56,93.81,34.23L93.81,34.23z"/>
		<path class="st1" d="M95.12,17.36c1.3,2.46,3.05,8.35,2.67,9.91c-0.4-0.26-1.25-0.54-1.57-0.81c-3.58-2.9-4.54-7.13-2.84-12.83
			c5.4,2.86,7.48,6.97,6.29,11.32c-0.22,0.61-0.57,1.48-0.93,2.24C98.12,22.99,96.72,19.19,95.12,17.36L95.12,17.36z"/>
		<path class="st1" d="M89.63,24.64c1.4,0.85,4.32,3.54,4.65,4.72c-0.34,0.07-0.9,0.3-1.15,0.35c-2.86,0.14-4.7-1.98-5.71-6.43
			c3.79-1.13,6.27,0.29,7.06,3.65c0.11,0.55,0.17,1.22,0.22,1.89C93.09,26.54,91,24.92,89.63,24.64L89.63,24.64z"/>
		<path class="st1" d="M109.02,33.35c-0.31,1.88-0.26,6.31,0.4,7.42c0.21-0.27,0.75-0.61,0.87-0.86c1.89-2.67,1.6-5.79-0.83-9.49
			c-3.15,2.93-3.71,6.12-1.91,8.93c0.28,0.51,0.73,0.99,1.18,1.46C108.21,37.84,108.37,34.85,109.02,33.35L109.02,33.35z"/>
		<path class="st1" d="M113.09,41.15c-0.23,1.41-0.16,4.7,0.25,5.41c0.23-0.16,0.6-0.47,0.75-0.61c1.36-1.87,1.14-4.22-0.67-7.02
			c-2.26,2.18-2.73,4.55-1.41,6.66c0.24,0.29,0.58,0.68,0.92,1.06C112.47,44.46,112.62,42.27,113.09,41.15L113.09,41.15z"/>
		<path class="st1" d="M114.94,25.64c-0.45,2.48-0.43,8.05,0.39,9.47c0.29-0.29,0.98-0.77,1.24-1.17c2.37-3.33,1.97-7.35-1.1-12.05
			c-4.05,3.68-4.76,7.81-2.52,11.44c0.39,0.6,1.05,1.26,1.52,1.84C113.76,31.34,114.02,27.53,114.94,25.64L114.94,25.64z"/>
		<path class="st1" d="M121.41,33.62c-0.9,1.55-2.14,5.68-1.9,6.88c0.25-0.05,0.92-0.19,1.17-0.24c2.67-1.46,3.34-4.56,2.05-9.07
			c-3.98,1.05-5.52,3.76-4.62,7.22c0.11,0.55,0.44,1.27,0.74,1.89C119.19,37.26,120.31,34.64,121.41,33.62L121.41,33.62z"/>
		<path class="st1" d="M125.85,39.86c-0.9,1.55-2.17,5.57-1.9,6.88c0.25-0.05,0.92-0.19,1.15-0.35c2.69-1.36,3.36-4.45,2.07-8.96
			c-3.98,1.05-5.52,3.76-4.62,7.22c0.11,0.55,0.44,1.27,0.72,1.78C123.64,43.5,124.67,40.9,125.85,39.86L125.85,39.86z"/>
		<path class="st1" d="M129.54,47.06c-0.78,1.3-1.74,4.68-1.53,5.66c0.25-0.05,0.75-0.16,1.01-0.21c2.11-1.23,2.72-3.75,1.59-7.5
			c-3.22,0.9-4.52,3.1-3.82,6.02c0.17,0.42,0.37,0.95,0.65,1.46C127.71,50.05,128.58,47.94,129.54,47.06L129.54,47.06z"/>
		<path class="st1" d="M135.33,43.8c1.35,0.17,4.23,1.4,4.77,2.31c-0.23,0.16-0.66,0.59-0.83,0.63c-2.21,1.14-4.18,0.07-5.94-3.32
			c2.76-2.28,4.99-2.06,6.32,0.51c0.26,0.4,0.48,1.04,0.57,1.47C138.45,44.07,136.51,43.56,135.33,43.8L135.33,43.8z"/>
		<path class="st1" d="M131.34,36.79c1.52,0.14,4.69,1.53,5.34,2.53c-0.23,0.16-0.73,0.72-0.98,0.77c-2.44,1.3-4.71,0.07-6.66-3.85
			c3.05-2.57,5.67-2.2,7.22,0.66c0.17,0.42,0.42,1.16,0.61,1.69C134.81,37.09,132.66,36.4,131.34,36.79L131.34,36.79z"/>
		<path class="st1" d="M128.72,30.05c1.45,0.27,4.71,1.64,5.27,2.66c-0.23,0.16-0.66,0.59-0.89,0.75c-2.52,1.32-4.73-0.04-6.74-3.83
			c3.14-2.58,5.67-2.2,7.2,0.55c0.28,0.51,0.5,1.15,0.72,1.78C132.21,30.46,129.97,29.79,128.72,30.05L128.72,30.05z"/>
		<path class="st1" d="M127.14,24.13c1.07,0.12,3.3,1.13,3.71,1.85c-0.15,0.14-0.44,0.43-0.58,0.58c-1.75,0.82-3.32,0.01-4.67-2.67
			c2.08-1.8,3.87-1.6,4.97,0.33c0.17,0.42,0.35,0.84,0.44,1.27C129.64,24.4,128.06,23.94,127.14,24.13L127.14,24.13z"/>
		<path class="st1" d="M121.43,25.31c-0.63,1.16-1.54,3.96-1.36,4.83c0.25-0.05,0.67-0.14,0.84-0.17c1.88-1.07,2.33-3.1,1.48-6.34
			c-2.83,0.7-3.91,2.63-3.33,5.01c0.17,0.42,0.37,0.95,0.55,1.37C119.87,27.91,120.62,26.05,121.43,25.31L121.43,25.31z"/>
		<path class="st1" d="M158.6,47.16c-0.12,1.96,0.41,6.17,1.11,7.05c0.12-0.25,0.64-0.7,0.76-0.95c1.41-2.91,0.88-5.87-1.88-9.05
			c-2.62,3.39-2.74,6.6-0.83,9.04c0.34,0.38,0.87,0.84,1.28,1.1C158.2,51.56,158.05,48.75,158.6,47.16L158.6,47.16z"/>
		<path class="st1" d="M152.01,39.88c-0.17,2.54,0.54,8.08,1.42,9.37c0.27-0.4,0.85-0.97,1.03-1.35c1.94-3.7,1.13-7.63-2.45-11.77
			c-3.38,4.34-3.64,8.6-1.04,11.82c0.45,0.48,1.09,1.03,1.62,1.48C151.57,45.78,151.33,42.07,152.01,39.88L152.01,39.88z"/>
		<path class="st1" d="M146,34.54c-0.18,2.08,0.44,6.73,1.17,7.72c0.21-0.27,0.7-0.83,0.82-1.08c1.64-3.07,0.96-6.34-1.95-9.83
			c-2.83,3.66-3.05,7.23-0.93,9.86c0.34,0.38,0.87,0.84,1.38,1.19C145.61,39.39,145.4,36.26,146,34.54L146,34.54z"/>
		<path class="st1" d="M140.81,26.4c-0.32,2.23,0,7.16,0.67,8.28c0.29-0.29,0.81-0.74,1.02-1.01c1.97-3.14,1.52-6.57-1.42-10.62
			c-3.29,3.53-3.76,7.15-1.72,10.25c0.36,0.49,0.92,1.06,1.45,1.52C140.03,31.46,140.13,28.14,140.81,26.4L140.81,26.4z"/>
		<path class="st1" d="M164.31,49.84c1.18,0.21,3.87,1.36,4.3,2.18c-0.15,0.14-0.5,0.56-0.75,0.61c-1.96,1.09-3.85,0-5.45-3.08
			c2.53-2.12,4.6-1.86,5.87,0.49c0.26,0.4,0.37,0.95,0.55,1.37C167.18,50.15,165.4,49.61,164.31,49.84L164.31,49.84z"/>
		<path class="st1" d="M161.2,41.61c1.4,0.85,4.19,3.34,4.52,4.52c-0.25,0.05-0.82,0.28-1.07,0.34c-2.75,0.23-4.59-1.89-5.56-6.12
			c3.62-1.09,6,0.23,6.82,3.36c0.11,0.55,0.17,1.22,0.22,1.89C164.55,43.42,162.58,41.9,161.2,41.61L161.2,41.61z"/>
		<path class="st1" d="M159.17,33.51c1.59,0.92,4.62,3.7,5,5.1c-0.25,0.05-0.9,0.3-1.17,0.24c-3,0.28-5.06-2.02-6.22-6.78
			c4.04-1.18,6.71,0.31,7.6,3.77c0.14,0.65,0.21,1.43,0.26,2.11C162.82,35.48,160.65,33.88,159.17,33.51L159.17,33.51z"/>
		<path class="st1" d="M159.8,26.44c1.19,0.66,3.58,2.9,3.86,3.86c-0.25,0.05-0.73,0.27-0.9,0.3c-2.33,0.14-3.91-1.58-4.77-5.26
			c3.12-0.99,5.2,0.17,5.85,2.88c0.09,0.44,0.14,1.11,0.17,1.67C162.66,28.01,160.98,26.65,159.8,26.44L159.8,26.44z"/>
		<path class="st1" d="M159.14,18.62c1.48,0.83,4.28,3.32,4.61,4.5c-0.34,0.07-0.88,0.41-1.15,0.35c-2.75,0.23-4.59-1.89-5.58-6.23
			c3.62-1.09,6.08,0.22,6.93,3.45c0.11,0.55,0.17,1.22,0.22,1.89C162.49,20.42,160.51,18.9,159.14,18.62L159.14,18.62z"/>
		<path class="st1" d="M166.95,11.99c0.26,2.11-0.03,6.6-0.71,7.54c-0.24-0.29-0.79-0.86-0.94-1.17c-1.75-3.39-1.36-6.54,1.35-9.49
			c3.13,4.13,3.52,7.68,1.53,9.92c-0.27,0.4-0.81,0.74-1.27,1.06C167.63,16.97,167.58,13.79,166.95,11.99L166.95,11.99z"/>
		<path class="st1" d="M159.92,11.86c1.06,0.92,3.02,3.58,3.05,4.6c-0.17,0.03-0.69,0.03-0.86,0.07c-2.3-0.55-3.61-2.66-3.75-6.27
			c3.24,0.01,4.99,1.69,5.2,4.38c0.01,0.45-0.05,1.03-0.12,1.5C162.48,14.06,160.98,12.32,159.92,11.86L159.92,11.86z"/>
		<path class="st1" d="M174.53,39.64c1.06,0.92,3.19,3.55,3.31,4.54c-0.25,0.05-0.75,0.16-0.94,0.08c-2.36-0.42-3.74-2.41-4.06-6.09
			c3.28-0.23,5.17,1.31,5.49,4.09c0.01,0.45-0.05,1.03-0.02,1.6C177.14,41.72,175.58,40.11,174.53,39.64L174.53,39.64z"/>
		<path class="st1" d="M176.02,34.22c0.94,0.72,2.61,2.87,2.68,3.65c-0.17,0.03-0.59,0.12-0.78,0.05c-1.9-0.29-2.93-1.89-3.18-4.8
			c2.58-0.2,4.05,0.98,4.34,3.19c-0.02,0.34-0.01,0.8-0.09,1.27C178.13,35.94,176.97,34.59,176.02,34.22L176.02,34.22z"/>
		<path class="st1" d="M174.87,29.11c1.06,0.46,3.2,1.95,3.55,2.79c-0.17,0.03-0.54,0.34-0.71,0.37c-1.93,0.4-3.42-0.88-4.39-3.86
			c2.46-1.19,4.26-0.54,5.07,1.68c0.09,0.44,0.18,0.87,0.29,1.42C177.43,30.06,175.84,29.14,174.87,29.11L174.87,29.11z"/>
		<path class="st1" d="M173.31,22.84c1.23,0.43,3.69,2.19,4.06,3.14c-0.25,0.05-0.71,0.37-0.88,0.41c-2.18,0.45-3.88-1.01-4.94-4.43
			c2.8-1.26,4.87-0.56,5.75,1.99c0.17,0.42,0.2,0.98,0.32,1.53C176.14,23.84,174.44,22.83,173.31,22.84L173.31,22.84z"/>
		<path class="st1" d="M176.54,13.98c0.13,1.91,1.27,6.1,2.12,6.84c0.12-0.25,0.51-0.9,0.55-1.14c1.07-3.29,0.03-6.15-3.11-8.68
			c-1.98,3.94-1.72,7.29,0.54,9.33c0.4,0.26,0.91,0.61,1.4,0.85C176.86,18.46,176.27,15.63,176.54,13.98L176.54,13.98z"/>
		<path class="st1" d="M172.34,32.93c-0.72,1.17-1.6,4.09-1.4,5.07c0.15-0.14,0.67-0.14,0.82-0.28c1.98-0.98,2.47-3.24,1.52-6.57
			c-2.89,0.83-4.06,2.78-3.37,5.25c0.09,0.44,0.29,0.96,0.55,1.36C170.7,35.55,171.45,33.69,172.34,32.93L172.34,32.93z"/>
		<path class="st1" d="M170.76,27.01c-0.57,1.03-1.38,3.47-1.22,4.23c0.17-0.03,0.59-0.12,0.75-0.16c1.65-0.91,2.06-2.7,1.28-5.61
			c-2.49,0.63-3.46,2.31-2.92,4.47c0.15,0.31,0.33,0.73,0.5,1.15C169.39,29.22,170.1,27.6,170.76,27.01L170.76,27.01z"/>
		<path class="st1" d="M169.65,21.21c-0.45,0.78-1.09,2.73-0.96,3.38c0.17-0.03,0.5-0.1,0.59-0.12c1.33-0.73,1.65-2.16,1.01-4.42
			c-1.91,0.51-2.69,1.81-2.26,3.43c0.07,0.33,0.22,0.64,0.37,0.95C168.54,23.03,169.05,21.68,169.65,21.21L169.65,21.21z"/>
		<path class="st1" d="M182.64,18.51c-0.52,1.7-1.07,5.79-0.65,6.96c0.23-0.16,0.88-0.41,1.02-0.55c2.2-2.05,2.36-5.04,0.47-9.08
			c-3.42,2.07-4.38,5-3.06,8.03c0.17,0.42,0.56,1.02,0.93,1.51C181.19,22.45,181.78,19.83,182.64,18.51L182.64,18.51z"/>
		<path class="st1" d="M186.29,26.4c-0.93,0.99-2.51,3.93-2.45,5.06c0.25-0.05,0.78-0.05,1.03-0.1c2.32-0.6,3.26-2.84,2.8-6.72
			c-3.41,0.03-5.04,1.84-4.79,4.75c0.11,0.55,0.23,1.09,0.42,1.62C184,28.81,185.19,26.97,186.29,26.4L186.29,26.4z"/>
		<path class="st1" d="M187.64,33.28c-0.94,0.54-2.66,2.37-2.83,3.2c0.27,0.06,0.65,0.21,0.85,0.28c2.04,0.14,3.13-1.33,3.36-4.45
			c-2.81-0.89-4.35,0.11-4.57,2.43c-0.1,0.36,0.01,0.91,0.02,1.36C185.36,34.55,186.61,33.38,187.64,33.28L187.64,33.28z"/>
		<path class="st1" d="M187.21,38.83c-0.92,0.65-2.63,2.48-2.73,3.3c0.19,0.07,0.65,0.21,0.85,0.28c1.94,0.05,3.11-1.44,3.34-4.56
			c-2.79-0.79-4.41,0.23-4.63,2.55c-0.02,0.34,0.01,0.91,0.1,1.34C185.02,40.08,186.29,39.02,187.21,38.83L187.21,38.83z"/>
		<path class="st1" d="M190.23,55.03c1.15,0.9,3.16,3.44,3.39,4.53c-0.27-0.06-0.78,0.05-1.05-0.01c-2.25-0.33-3.65-2.43-3.96-6
			c3.19-0.21,5.09,1.33,5.38,4c0.09,0.44,0.06,1.12-0.02,1.6C192.85,57.1,191.37,55.48,190.23,55.03L190.23,55.03z"/>
		<path class="st1" d="M190.91,47.38c1.36,1.08,3.89,4.42,4.06,5.64c-0.27-0.06-0.86,0.07-1.14,0.01c-2.97-0.41-4.63-2.91-4.97-7.5
			c3.97-0.26,6.29,1.65,6.66,5.1c0.11,0.55,0.08,1.23-0.03,1.94C194.15,49.9,192.25,47.9,190.91,47.38L190.91,47.38z"/>
		<path class="st1" d="M192.14,40.65c1.15,0.9,3.19,3.55,3.31,4.54c-0.19-0.07-0.69,0.03-0.97-0.03c-2.25-0.33-3.55-2.33-3.85-5.91
			c3.11-0.19,4.98,1.24,5.3,4.02c0.01,0.45-0.05,1.03-0.04,1.49C194.76,42.72,193.28,41.09,192.14,40.65L192.14,40.65z"/>
		<path class="st1" d="M191.57,33.71c1.13,0.79,3.16,3.44,3.28,4.44c-0.27-0.06-0.69,0.03-0.94,0.08c-2.28-0.44-3.57-2.44-3.96-6
			c3.19-0.21,5.09,1.33,5.38,4c0.01,0.45-0.05,1.03-0.04,1.49C194.17,35.68,192.72,34.16,191.57,33.71L191.57,33.71z"/>
		<path class="st1" d="M190.04,26.75c1.06,0.92,3.08,3.45,3.2,4.45c-0.17,0.03-0.67,0.14-0.94,0.08c-2.25-0.33-3.55-2.33-3.87-6.02
			c3.11-0.19,5,1.35,5.3,4.02c0.01,0.45-0.05,1.03-0.02,1.6C192.57,28.84,191.1,27.22,190.04,26.75L190.04,26.75z"/>
		<path class="st1" d="M195.95,21.09c-0.52,1.7-0.88,5.87-0.38,7.02c0.23-0.16,0.77-0.5,1-0.66c2.07-2.25,2.07-5.21,0.03-9.1
			c-3.29,2.28-4.17,5.19-2.76,8.19c0.28,0.51,0.65,1,1.09,1.48C194.68,25.11,195.09,22.41,195.95,21.09L195.95,21.09z"/>
		<path class="st1" d="M189.04,20.25c1.06,0.92,3.08,3.45,3.28,4.44c-0.25,0.05-0.75,0.16-0.94,0.08c-2.34-0.31-3.63-2.32-3.96-6
			c3.19-0.21,5,1.35,5.3,4.02c0.09,0.44,0.04,1.02-0.02,1.6C191.66,22.32,190.1,20.72,189.04,20.25L189.04,20.25z"/>
		<path class="st1" d="M192.8,14.35c-0.36,1.21-0.57,3.99-0.22,4.82c0.15-0.14,0.54-0.34,0.69-0.48c1.43-1.55,1.44-3.6,0.01-6.26
			c-2.31,1.5-2.85,3.55-1.89,5.62c0.15,0.31,0.49,0.69,0.75,1.09C191.98,17.14,192.29,15.26,192.8,14.35L192.8,14.35z"/>
		<path class="st1" d="M201.07,27.65c-0.99,1.12-2.69,4.31-2.63,5.44c0.27,0.06,0.88,0.04,1.14-0.01c2.58-0.65,3.57-3.02,3.05-7.23
			c-3.76-0.01-5.46,1.93-5.16,5.05c0.03,0.56,0.25,1.2,0.38,1.85C198.63,30.2,199.97,28.22,201.07,27.65L201.07,27.65z"/>
		<path class="st1" d="M203.2,34.94c-1.05,1.24-2.77,4.33-2.69,5.56c0.25-0.05,0.88,0.04,1.14-0.01c2.58-0.65,3.55-3.13,3.02-7.34
			c-3.66,0.08-5.44,2.04-5.14,5.16c0.03,0.56,0.25,1.2,0.36,1.74C200.69,37.62,202.03,35.64,203.2,34.94L203.2,34.94z"/>
		<path class="st1" d="M204.45,42.64c-1.14,0.81-3.13,3.04-3.26,4.09c0.27,0.06,0.76,0.3,1.01,0.24c2.38,0.07,3.74-1.8,3.93-5.48
			c-3.42-0.88-5.27,0.3-5.48,3.07c-0.08,0.47,0.06,1.13,0.09,1.69C201.82,44.32,203.27,42.88,204.45,42.64L204.45,42.64z"/>
		<path class="st1" d="M205.42,50.28c-1.21,0.48-3.54,2.33-3.86,3.3c0.27,0.06,0.78,0.41,1.06,0.46c2.38,0.53,3.92-0.93,4.58-4.48
			c-3.22-1.61-5.33-0.83-5.84,1.78c-0.16,0.49-0.13,1.05-0.19,1.63C202.58,51.33,204.2,50.31,205.42,50.28L205.42,50.28z"/>
		<path class="st1" d="M204.82,56.66c-1.04,0.44-3.02,1.88-3.2,2.71c0.19,0.07,0.59,0.33,0.78,0.41c2.03,0.49,3.33-0.81,3.86-3.76
			c-2.63-1.27-4.43-0.67-4.83,1.57c-0.1,0.36-0.09,0.82-0.17,1.29C202.38,57.51,203.77,56.65,204.82,56.66L204.82,56.66z"/>
		<path class="st1" d="M200.27,20.42c-0.36,1.21-0.55,4.09-0.22,4.82c0.15-0.14,0.54-0.34,0.69-0.48c1.45-1.44,1.44-3.6,0.01-6.26
			c-2.29,1.61-2.83,3.66-1.89,5.62c0.17,0.42,0.49,0.69,0.75,1.09C199.45,23.21,199.76,21.32,200.27,20.42L200.27,20.42z"/>
		<path class="st1" d="M203.5,75.13c-1.06-0.92-3.73-1.95-4.46-1.69c0.15,0.31,0.29,0.96,0.42,1.16c1.38,2.44,3.35,3.06,5.76,1.65
			c-1.4-3.8-3.27-5.23-5.17-4.27c-0.31,0.18-0.69,0.48-0.98,0.77C200.97,73.04,202.66,74.06,203.5,75.13L203.5,75.13z"/>
		<path class="st1" d="M208.05,73.05c-0.99-1.39-3.5-3.82-4.39-3.86c-0.02,0.34,0.04,1.02,0.1,1.34c0.76,3.25,2.66,4.79,5.83,4.48
			c-0.4-4.47-2.04-6.86-4.39-6.82c-0.42,0.09-0.92,0.19-1.32,0.39C205.86,69.64,207.46,71.47,208.05,73.05L208.05,73.05z"/>
		<path class="st1" d="M213.12,71.32c-1.01-1.5-3.61-3.91-4.47-3.85c0.07,0.33,0.04,1.02,0.19,1.33c0.66,3.16,2.63,4.68,5.83,4.48
			c-0.43-4.57-2.12-6.84-4.47-6.8c-0.36-0.04-0.84,0.17-1.26,0.26C210.84,67.92,212.52,69.73,213.12,71.32L213.12,71.32z"/>
		<path class="st1" d="M219.1,71.89c-0.88-1.3-3.27-3.53-4.07-3.59c0.07,0.33,0.04,1.02,0.17,1.22c0.63,3.05,2.4,4.39,5.34,4.24
			c-0.36-4.25-1.86-6.44-4.03-6.33c-0.36-0.04-0.84,0.17-1.26,0.26C217.05,68.79,218.53,70.42,219.1,71.89L219.1,71.89z"/>
		<path class="st1" d="M223.83,68.98c-1.09-1.03-3.72-2.75-4.56-2.58c0.13,0.2,0.2,0.98,0.33,1.18c1.03,2.86,3.09,3.91,5.87,2.99
			c-0.94-4.13-2.74-6.03-4.9-5.47c-0.34,0.07-0.79,0.39-1.11,0.57C221.37,66.42,223.05,67.77,223.83,68.98L223.83,68.98z"/>
		<path class="st1" d="M222.07,59.68c-1.3,0.5-3.67,2.13-3.91,3.09c0.21,0.18,0.7,0.42,0.97,0.48c2.35,0.76,3.96-0.71,4.71-4.28
			c-3.24-1.71-5.27-0.95-5.95,1.69c-0.1,0.36-0.13,1.05-0.12,1.5C219.12,60.63,220.85,59.7,222.07,59.68L222.07,59.68z"/>
		<path class="st1" d="M216.09,56.14c-0.93,0.99-2.53,3.82-2.39,4.93c0.17-0.03,0.72,0.08,0.97,0.03c2.33-0.6,3.28-2.73,2.85-6.5
			c-3.34-0.1-5,1.61-4.75,4.51c0.09,0.44,0.23,1.09,0.42,1.62C213.85,58.43,215.06,56.7,216.09,56.14L216.09,56.14z"/>
		<path class="st1" d="M210.56,55.24c-1.02,1.01-2.53,3.82-2.49,4.84c0.27,0.06,0.72,0.08,0.97,0.03c2.35-0.49,3.28-2.73,2.85-6.5
			c-3.32,0.01-4.98,1.72-4.66,4.49c0.03,0.56,0.14,1.11,0.34,1.64C208.24,57.54,209.46,55.81,210.56,55.24L210.56,55.24z"/>
		<path class="st1" d="M226.82,64.03c-0.95-0.37-2.99-0.52-3.51-0.07c0.13,0.2,0.39,0.6,0.52,0.8c1.45,1.52,2.92,1.44,4.47-0.36
			c-1.66-2.5-3.26-3.08-4.48-1.8c-0.23,0.16-0.41,0.54-0.6,0.92C224.62,63.13,226.08,63.39,226.82,64.03L226.82,64.03z"/>
	</g>
</g>
<path class="st1" d="M92.33,137.24c0.01-6.27,0.02-12.55,0.03-18.83c3.87,0,7.75,0,11.62,0c-0.01-8.91-0.02-17.83-0.03-26.74
	c0-4.56-0.49-10.21,0.92-13.43c1.34-3.07,3.87-5.35,7.24-6.41c0.92-0.29,1.93-0.31,3-0.49c0.91-0.15,2.02,0.13,2.73,0.31
	c2.55,0.65,4.62,1.73,6.04,3.5c1.2,1.49,2.18,2.97,2.73,5.15c0.34,1.35,0.28,3.07,0.28,4.75c0,2.31,0,4.62,0,6.93
	c0,5.68,0,11.37,0,17.05c0,3.1,0.13,6.38-0.06,9.38c2.05,0,4.11,0,6.16,0c0-13.38,0-26.76,0-40.14c0.01-5.02,0.02-10.04,0.03-15.05
	c0.3-1.79,0.62-3.36,1.23-4.81c1.91-4.6,5.68-8.2,10.64-9.75c1.34-0.42,2.77-0.55,4.35-0.8c1.46-0.23,3.13,0.08,4.26,0.34
	c3.78,0.87,7.06,2.46,9.14,5.03c0.42,0.52,0.95,0.98,1.35,1.53c1.26,1.71,2.25,3.71,2.88,6.04c0.57,2.11,0.52,4.75,0.52,7.45
	c0,3.54,0,7.07,0,10.61c0,13.18,0,26.37,0,39.55c2.04-0.01,4.09-0.02,6.13-0.03c0-0.01,0-0.02,0-0.03
	c-0.02-0.43-0.04-0.86-0.06-1.29c0-1.08,0-2.17,0-3.25c0-3.58,0-7.15,0-10.73c0-4.96,0-9.91,0-14.87c0-2.61-0.27-5.76,0.28-7.94
	c0.79-3.13,2.51-5.46,4.91-6.99c1.44-0.92,4.48-2.36,7.11-1.9c0.9,0.16,1.78,0.24,2.58,0.49c3.52,1.1,6.05,3.61,7.36,6.93
	c1.2,3.04,0.74,8.9,0.74,13.09c0,8.82,0.11,17.81-0.06,26.52c3.89,0.01,7.79,0.02,11.68,0.03c0,6.26,0,12.53,0,18.8"/>
<g>
	<path class="st0" d="M76.16,178.92l-0.01-0.28l0.63,0.03c0.6,0.02,0.97,0.03,1.13,0.03c0.51,0,0.9-0.01,1.16-0.03h0.48l0.03,0.25
		c-0.26,0.02-0.51,0.07-0.74,0.16c-0.23,0.09-0.35,0.22-0.35,0.38c0,0.17,0.17,0.75,0.51,1.72c0.34,0.98,0.71,1.98,1.09,2.99
		s0.6,1.55,0.62,1.59l0.27-0.72c0.03-0.05,0.1-0.22,0.22-0.51c0.12-0.29,0.21-0.5,0.27-0.66l1.16-2.61
		c-0.34-0.79-0.56-1.29-0.66-1.52s-0.18-0.37-0.23-0.43c-0.16-0.23-0.41-0.35-0.75-0.37l-0.03-0.28c0.3,0.02,0.61,0.03,0.93,0.03
		c0.81,0,1.54-0.02,2.19-0.07l0.01,0.23c-0.32,0.04-0.55,0.08-0.7,0.15c-0.15,0.06-0.24,0.13-0.28,0.19
		c-0.03,0.07-0.05,0.14-0.05,0.24c0,0.15,0.14,0.65,0.42,1.5c0.28,0.85,0.62,1.8,1,2.85c0.39,1.05,0.64,1.71,0.77,2
		c0.33-0.82,0.66-1.67,0.98-2.57s0.58-1.65,0.76-2.28c0.19-0.62,0.28-1.03,0.28-1.22c0-0.36-0.12-0.59-0.37-0.69
		c-0.25-0.1-0.55-0.15-0.91-0.17l-0.05-0.22h0.71c0.6,0.02,1.26,0.02,1.99-0.01l0.53-0.01l-0.02,0.23c-0.28,0.03-0.5,0.1-0.68,0.22
		s-0.35,0.32-0.5,0.61c-0.16,0.29-0.33,0.71-0.53,1.25l-1.32,3.7c-0.22,0.6-0.36,0.96-0.4,1.06c-0.09,0.22-0.16,0.42-0.22,0.59
		c-0.06,0.17-0.12,0.37-0.2,0.59s-0.16,0.48-0.26,0.78l-0.21-0.01c-0.12-0.38-0.25-0.76-0.37-1.15s-0.23-0.73-0.33-1.02
		c-0.09-0.28-0.16-0.49-0.21-0.61l-1.12-3.09c-0.06,0.13-0.14,0.31-0.24,0.52s-0.17,0.37-0.23,0.48l-0.71,1.61
		c-0.18,0.4-0.33,0.76-0.45,1.1c-0.12,0.34-0.25,0.71-0.39,1.11c-0.14,0.41-0.25,0.76-0.35,1.07h-0.18l-0.78-2.26
		c-0.11-0.34-0.25-0.77-0.42-1.28s-0.37-1.09-0.6-1.74c-0.23-0.65-0.44-1.23-0.63-1.73c-0.19-0.5-0.35-0.85-0.46-1.05
		c-0.16-0.3-0.34-0.5-0.53-0.58C76.65,178.96,76.42,178.92,76.16,178.92z"/>
	<path class="st0" d="M97.83,185.31h0.21c-0.07,0.46-0.15,0.85-0.23,1.16s-0.19,0.6-0.33,0.88c-0.15-0.01-0.35-0.02-0.6-0.03
		c-0.25-0.01-0.61-0.01-1.07-0.01c-0.28,0-0.57,0-0.89-0.01s-0.45-0.01-0.41-0.01c-0.29,0-0.62,0-1.01,0.01s-0.85,0.02-1.39,0.04
		s-0.94,0.03-1.19,0.05l0.01-0.23c0.14-0.03,0.28-0.07,0.42-0.1s0.24-0.08,0.29-0.12s0.09-0.1,0.11-0.16
		c0.02-0.07,0.04-0.18,0.07-0.35c0.03-0.17,0.05-0.48,0.08-0.92c0.02-0.45,0.04-0.95,0.06-1.5c0.02-0.55,0.02-0.9,0.02-1.04
		l-0.05-2.13c-0.01-0.66-0.04-1.11-0.08-1.34s-0.11-0.39-0.22-0.46c-0.11-0.08-0.31-0.14-0.61-0.2c0-0.07,0-0.13,0.01-0.17h4.27
		c0.48,0,1.2-0.02,2.17-0.05c-0.02,0.38-0.06,0.77-0.12,1.15s-0.13,0.58-0.22,0.58c-0.11,0-0.17-0.03-0.17-0.1
		c0-0.03,0.01-0.11,0.03-0.25c0.02-0.14,0.03-0.23,0.03-0.25c0-0.33-0.19-0.54-0.58-0.62c-0.39-0.09-0.85-0.13-1.4-0.13
		c-0.65,0-1.33,0.04-2.05,0.13c-0.08,0.74-0.12,1.37-0.12,1.87c0,0.33,0,0.71,0.01,1.14s0.01,0.63,0.01,0.6
		c0.11,0.01,0.43,0.01,0.98,0.01c0.94,0,1.59-0.02,1.94-0.05c0.2-0.02,0.33-0.05,0.4-0.08s0.13-0.11,0.2-0.24
		c0.06-0.13,0.13-0.32,0.21-0.59l0.19,0.01c0,0.47,0,0.88,0,1.25c0,0.37-0.01,0.79-0.01,1.26h-0.23c-0.01-0.41-0.07-0.7-0.18-0.86
		c-0.11-0.16-0.32-0.26-0.63-0.31c-0.31-0.04-0.86-0.07-1.66-0.07c-0.51,0-0.91,0.02-1.2,0.07l-0.03,0.95
		c-0.03,1.16,0.01,2.06,0.12,2.69c0.08,0.02,0.18,0.05,0.29,0.07c0.11,0.03,0.22,0.05,0.32,0.06s0.24,0.03,0.43,0.05
		c0.19,0.02,0.42,0.02,0.7,0.02c0.7,0,1.24-0.05,1.64-0.15c0.4-0.1,0.7-0.27,0.91-0.5C97.5,186.06,97.68,185.74,97.83,185.31z"/>
	<path class="st0" d="M100.06,178.97l-0.01-0.25c1.19,0,2.19-0.05,3-0.15c0.3-0.04,0.62-0.06,0.94-0.06c0.66,0,1.29,0.1,1.9,0.3
		c0.6,0.2,1.14,0.49,1.61,0.86s0.84,0.83,1.11,1.37c0.27,0.54,0.4,1.14,0.4,1.82c0,0.81-0.21,1.56-0.62,2.23
		c-0.42,0.67-1.01,1.2-1.78,1.59s-1.65,0.58-2.63,0.58c-0.06,0-0.23,0-0.53-0.01c-0.29-0.01-0.46-0.01-0.51-0.01
		c-0.17,0-0.33,0-0.46,0c-0.14,0-0.33,0.01-0.59,0.01c-0.26,0-0.51,0.01-0.75,0.02c-0.24,0.01-0.4,0.01-0.49,0.01l-0.65-0.01v-0.26
		c0.48,0,0.76-0.1,0.86-0.31c0.11-0.25,0.17-1.36,0.17-3.34c0-1.31-0.02-2.29-0.05-2.94s-0.09-1.05-0.19-1.2
		C100.67,179.03,100.43,178.95,100.06,178.97z M107.85,182.86c0-0.85-0.2-1.58-0.6-2.19c-0.4-0.61-0.91-1.07-1.53-1.39
		c-0.62-0.31-1.26-0.47-1.91-0.47c-0.64,0-1.22,0.12-1.73,0.35c-0.04,0.25-0.08,1-0.1,2.24c-0.02,1.24-0.03,2.31-0.03,3.21
		c0,0.04,0,0.2,0.01,0.5c0.01,0.3,0.01,0.6,0.02,0.91c0.01,0.31,0.01,0.48,0.01,0.53c0.45,0.14,0.79,0.24,1.03,0.3
		c0.24,0.06,0.54,0.08,0.91,0.08c0.92,0,1.67-0.2,2.26-0.6s1.01-0.91,1.28-1.53C107.72,184.19,107.85,183.54,107.85,182.86z"/>
	<path class="st0" d="M111.23,178.97l-0.01-0.25c1.19,0,2.19-0.05,3-0.15c0.3-0.04,0.62-0.06,0.94-0.06c0.66,0,1.29,0.1,1.9,0.3
		c0.6,0.2,1.14,0.49,1.61,0.86s0.84,0.83,1.11,1.37c0.27,0.54,0.4,1.14,0.4,1.82c0,0.81-0.21,1.56-0.62,2.23
		c-0.42,0.67-1.01,1.2-1.78,1.59s-1.65,0.58-2.63,0.58c-0.06,0-0.23,0-0.53-0.01c-0.29-0.01-0.46-0.01-0.51-0.01
		c-0.17,0-0.33,0-0.46,0c-0.14,0-0.33,0.01-0.59,0.01c-0.26,0-0.51,0.01-0.75,0.02c-0.24,0.01-0.4,0.01-0.49,0.01l-0.65-0.01v-0.26
		c0.48,0,0.76-0.1,0.86-0.31c0.11-0.25,0.17-1.36,0.17-3.34c0-1.31-0.02-2.29-0.05-2.94s-0.09-1.05-0.19-1.2
		C111.85,179.03,111.6,178.95,111.23,178.97z M119.03,182.86c0-0.85-0.2-1.58-0.6-2.19c-0.4-0.61-0.91-1.07-1.53-1.39
		c-0.62-0.31-1.26-0.47-1.91-0.47c-0.64,0-1.22,0.12-1.73,0.35c-0.04,0.25-0.08,1-0.1,2.24c-0.02,1.24-0.03,2.31-0.03,3.21
		c0,0.04,0,0.2,0.01,0.5c0.01,0.3,0.01,0.6,0.02,0.91c0.01,0.31,0.01,0.48,0.01,0.53c0.45,0.14,0.79,0.24,1.03,0.3
		c0.24,0.06,0.54,0.08,0.91,0.08c0.92,0,1.67-0.2,2.26-0.6s1.01-0.91,1.28-1.53C118.9,184.19,119.03,183.54,119.03,182.86z"/>
	<path class="st0" d="M122.35,178.87v-0.29c0.5,0.03,0.81,0.04,0.94,0.05c0.45,0.02,0.76,0.03,0.91,0.03c0.05,0,0.28-0.01,0.69-0.03
		s0.79-0.04,1.15-0.05v0.32c-0.39,0-0.66,0.02-0.8,0.06c-0.14,0.04-0.25,0.13-0.32,0.25c-0.15,0.28-0.22,1.36-0.22,3.23
		c0,1.29,0,2.11,0,2.45c0,0.34,0.01,0.71,0.02,1.1c0.01,0.31,0.03,0.54,0.07,0.67s0.15,0.23,0.33,0.29c0.18,0.06,0.46,0.1,0.86,0.1
		l-0.03,0.25c-0.06,0-0.19,0-0.37-0.01c-0.18-0.01-0.38-0.01-0.57-0.02s-0.35-0.01-0.46-0.01c-0.11,0-0.23,0-0.37,0
		c-0.2,0-0.36,0-0.49,0c-0.13,0-0.31,0-0.52,0.01c-0.22,0-0.41,0.01-0.59,0.02s-0.28,0.01-0.32,0.01l-0.01-0.25
		c0.48-0.03,0.8-0.08,0.97-0.17c0.17-0.08,0.28-0.22,0.35-0.41c0.09-0.24,0.15-0.7,0.17-1.37s0.04-1.38,0.04-2.13
		c0-0.67-0.02-1.64-0.07-2.91c-0.01-0.35-0.05-0.6-0.1-0.75c-0.06-0.15-0.18-0.26-0.37-0.33
		C123.05,178.91,122.75,178.87,122.35,178.87z"/>
	<path class="st0" d="M127.93,178.85v-0.28c0.4,0.03,0.66,0.04,0.77,0.05c0.11,0.01,0.24,0.01,0.39,0l0.57-0.01
		c0.27,0.34,0.58,0.7,0.94,1.08c0.36,0.38,0.76,0.79,1.21,1.22c0.45,0.44,0.7,0.68,0.76,0.74l3.93,3.76
		c0.04-0.56,0.05-1.41,0.05-2.54v-1.29c0-0.69-0.02-1.21-0.05-1.56c-0.03-0.35-0.1-0.61-0.19-0.77c-0.09-0.17-0.22-0.28-0.37-0.33
		c-0.15-0.06-0.4-0.11-0.76-0.17l0.07-0.19c0.06-0.01,0.17-0.01,0.33-0.01c0.14,0,0.28,0,0.41,0.01c0.14,0,0.3,0.02,0.49,0.03
		c0.11,0.01,0.23,0.01,0.35,0.01c0.12,0,0.22,0,0.29,0l0.85-0.01l0.01,0.23c-0.27,0.04-0.46,0.1-0.57,0.19
		c-0.12,0.08-0.2,0.23-0.25,0.42c-0.08,0.37-0.14,1.08-0.17,2.15c-0.03,1.07-0.05,2.09-0.05,3.05c0,0.38,0,0.74,0.01,1.09
		c0.01,0.35,0.01,0.66,0.02,0.94s0.02,0.53,0.04,0.77l-0.27-0.01c-0.31-0.67-1.23-1.72-2.77-3.17l-2.5-2.35
		c-0.08-0.06-0.29-0.25-0.62-0.56c-0.33-0.31-0.74-0.7-1.24-1.16l-0.09,4.11c-0.02,0.84,0,1.44,0.05,1.77
		c0.06,0.34,0.18,0.56,0.38,0.67s0.57,0.22,1.11,0.33c0,0.1-0.01,0.18-0.03,0.25c-0.07,0-0.28-0.01-0.64-0.03
		c-0.36-0.02-0.58-0.03-0.66-0.03c-0.07,0-0.32,0.01-0.73,0.03c-0.07,0-0.17,0.01-0.29,0.02c-0.12,0.01-0.28,0.02-0.47,0.03
		c-0.06,0-0.11-0.01-0.14-0.04c-0.03-0.03-0.04-0.07-0.04-0.12c0-0.07,0.01-0.11,0.03-0.12c0.02-0.01,0.07-0.02,0.15-0.03
		c0.2-0.02,0.34-0.06,0.42-0.11c0.09-0.05,0.16-0.14,0.21-0.28s0.09-0.36,0.12-0.66s0.04-0.69,0.04-1.16l0.05-3.2
		c0.01-0.7,0-1.22-0.04-1.56s-0.14-0.62-0.3-0.83C128.6,179.02,128.32,178.9,127.93,178.85z"/>
	<path class="st0" d="M148.65,183.01v0.25c-0.17,0.06-0.28,0.1-0.33,0.13c-0.05,0.03-0.09,0.09-0.12,0.18
		c-0.02,0.06-0.04,0.14-0.04,0.23c-0.01,0.1-0.01,0.25-0.02,0.44s-0.01,0.56-0.01,1.11c0,0.4,0.01,0.68,0.03,0.85
		c0.02,0.17,0.05,0.29,0.08,0.35c0.04,0.06,0.1,0.13,0.19,0.21l-0.07,0.15c-0.07,0-0.38,0.06-0.93,0.17
		c-0.36,0.07-0.71,0.12-1.05,0.17c-0.33,0.04-0.6,0.07-0.8,0.08s-0.44,0.02-0.71,0.02c-0.82,0-1.54-0.13-2.15-0.38
		c-0.61-0.26-1.11-0.6-1.51-1.04c-0.4-0.44-0.68-0.91-0.87-1.42c-0.18-0.51-0.27-1.03-0.27-1.55c0-0.68,0.14-1.31,0.42-1.88
		c0.28-0.57,0.66-1.04,1.14-1.43s1.03-0.68,1.64-0.87c0.61-0.19,1.24-0.29,1.88-0.29c0.24,0,0.48,0.02,0.7,0.05
		c0.22,0.03,0.42,0.07,0.59,0.1s0.28,0.07,0.33,0.08c0.19,0.08,0.32,0.13,0.37,0.13c0.24-0.2,0.37-0.3,0.41-0.3
		c0.06,0,0.09,0.08,0.09,0.25c0,0.13,0.03,0.41,0.09,0.83c0.06,0.42,0.09,0.71,0.09,0.87c0,0.07-0.03,0.1-0.08,0.1
		c-0.04,0-0.07-0.01-0.08-0.02c-0.01-0.01-0.03-0.06-0.06-0.13c-0.16-0.38-0.47-0.75-0.92-1.08c-0.45-0.34-1.06-0.51-1.84-0.51
		c-0.74,0-1.39,0.19-1.96,0.56c-0.57,0.37-1,0.87-1.31,1.48c-0.3,0.61-0.45,1.24-0.45,1.89c0,0.46,0.09,0.93,0.26,1.42
		s0.43,0.94,0.78,1.38c0.35,0.43,0.77,0.77,1.27,1.03c0.5,0.25,1.05,0.38,1.65,0.38c0.51,0,0.94-0.07,1.29-0.21
		c0.35-0.14,0.58-0.28,0.69-0.42c0.05-0.06,0.08-0.16,0.09-0.29c0.01-0.13,0.02-0.48,0.02-1.04c0-0.55-0.02-0.93-0.06-1.14
		c-0.04-0.21-0.14-0.36-0.3-0.43s-0.44-0.11-0.85-0.11c-0.17,0-0.31,0.01-0.42,0.03l0.03-0.29c0.61,0,1.18-0.01,1.71-0.02
		C147.81,183.07,148.27,183.05,148.65,183.01z"/>
	<path class="st0" d="M158.2,189.25v-12.18h0.64v12.18H158.2z"/>
	<path class="st0" d="M168.56,183.17c0-0.95,0.15-1.76,0.45-2.44s0.69-1.19,1.16-1.53c0.47-0.34,0.96-0.51,1.47-0.51
		c0.43,0,0.83,0.11,1.2,0.33c0.36,0.22,0.67,0.52,0.92,0.91c0.25,0.39,0.45,0.84,0.58,1.36c0.14,0.51,0.2,1.07,0.2,1.67
		c0,0.83-0.12,1.58-0.37,2.25s-0.61,1.2-1.07,1.58c-0.47,0.38-1.01,0.58-1.63,0.58c-0.59,0-1.11-0.2-1.56-0.6s-0.78-0.92-1.01-1.56
		C168.68,184.55,168.56,183.88,168.56,183.17z M169.56,182.54c0,0.29,0.02,0.67,0.06,1.13c0.04,0.46,0.13,0.95,0.26,1.47
		c0.14,0.52,0.35,0.96,0.64,1.33c0.29,0.36,0.67,0.55,1.14,0.55c0.44,0,0.79-0.17,1.08-0.5s0.49-0.76,0.62-1.28
		c0.13-0.52,0.19-1.08,0.19-1.68c0-0.42-0.04-0.96-0.11-1.63c-0.07-0.66-0.23-1.27-0.48-1.81c-0.08-0.17-0.18-0.34-0.3-0.5
		c-0.12-0.16-0.28-0.3-0.48-0.43s-0.43-0.19-0.68-0.19c-0.2,0-0.4,0.04-0.61,0.13c-0.21,0.09-0.42,0.26-0.63,0.52
		c-0.21,0.26-0.38,0.62-0.51,1.09S169.56,181.82,169.56,182.54z"/>
	<path class="st0" d="M177.67,187.56l-0.11-0.24c0.91-0.36,1.64-0.83,2.19-1.43s0.94-1.2,1.15-1.83c0.22-0.63,0.32-1.23,0.32-1.82
		c0-0.56-0.07-1.05-0.2-1.48c-0.14-0.43-0.31-0.77-0.52-1.04c-0.21-0.26-0.43-0.46-0.68-0.6s-0.47-0.2-0.69-0.2
		c-0.28,0-0.53,0.08-0.77,0.23s-0.42,0.38-0.56,0.67c-0.14,0.29-0.2,0.64-0.2,1.03c0,0.44,0.08,0.86,0.25,1.25
		c0.17,0.39,0.39,0.7,0.68,0.94s0.58,0.35,0.89,0.35c0.21,0,0.42-0.06,0.65-0.18c0.22-0.12,0.41-0.24,0.55-0.36v0.31
		c-0.31,0.21-0.56,0.36-0.73,0.47c-0.18,0.11-0.34,0.18-0.48,0.22c-0.14,0.04-0.31,0.06-0.49,0.06c-0.37,0-0.72-0.11-1.05-0.34
		c-0.33-0.23-0.59-0.53-0.79-0.9c-0.2-0.37-0.29-0.78-0.29-1.21c0-0.46,0.11-0.92,0.34-1.36c0.22-0.44,0.54-0.8,0.94-1.07
		c0.4-0.27,0.84-0.41,1.32-0.41c0.36,0,0.71,0.08,1.05,0.24s0.64,0.38,0.9,0.67c0.26,0.29,0.46,0.65,0.62,1.07
		c0.15,0.42,0.23,0.88,0.23,1.39c0,0.35-0.04,0.74-0.12,1.16c-0.08,0.42-0.23,0.87-0.46,1.35s-0.54,0.92-0.95,1.32
		c-0.24,0.25-0.51,0.47-0.81,0.68c-0.3,0.21-0.57,0.38-0.81,0.5c-0.25,0.12-0.5,0.23-0.75,0.33
		C178.03,187.43,177.82,187.51,177.67,187.56z"/>
	<path class="st0" d="M184.84,186.67c0-0.06,0.06-0.13,0.17-0.21c0.2-0.1,0.37-0.29,0.51-0.55c0.05-0.07,0.11-0.11,0.18-0.11
		c0.08,0,0.13,0.04,0.17,0.11s0.06,0.12,0.06,0.15c0.17,0.23,0.31,0.37,0.43,0.43c0.08,0.04,0.13,0.06,0.14,0.09
		s0.02,0.06,0.02,0.11c0,0.07-0.04,0.12-0.11,0.17c-0.19,0.09-0.37,0.26-0.52,0.52c-0.06,0.1-0.13,0.16-0.19,0.16
		c-0.08,0-0.14-0.05-0.21-0.14c-0.08-0.15-0.15-0.26-0.21-0.32c-0.06-0.07-0.16-0.14-0.3-0.21c-0.06-0.04-0.1-0.08-0.12-0.09
		C184.85,186.75,184.84,186.71,184.84,186.67z"/>
	<path class="st0" d="M189.82,187.34l-0.01-0.29c0.32,0,0.59-0.04,0.82-0.12c0.23-0.08,0.38-0.25,0.45-0.49
		c0.06-0.19,0.1-0.59,0.14-1.2s0.06-1.24,0.07-1.88c0.01-0.64,0.02-1.26,0.02-1.84c0-1.04-0.02-1.65-0.07-1.83
		c-0.04-0.18-0.17-0.3-0.4-0.34s-0.55-0.07-0.98-0.07l-0.01-0.26c0.64-0.01,1.17-0.04,1.59-0.07c0.42-0.04,0.77-0.08,1.03-0.12
		s0.56-0.1,0.9-0.17l0.07,0.26l-0.47,0.11c-0.27,0.06-0.44,0.16-0.52,0.29c-0.08,0.14-0.13,0.35-0.16,0.64
		c-0.04,0.45-0.08,0.89-0.1,1.33c-0.02,0.44-0.03,0.85-0.04,1.25c0,0.39-0.01,0.89-0.01,1.49c0,1.66,0.07,2.58,0.22,2.76
		c0.07,0.07,0.18,0.12,0.35,0.17s0.49,0.09,0.97,0.13l-0.01,0.28c-0.62-0.04-1.07-0.05-1.33-0.05
		C191.36,187.27,190.51,187.29,189.82,187.34z"/>
	<path class="st0" d="M200.78,187.27h-3.16c-0.27,0-0.58,0.02-0.93,0.07c-0.04-0.07-0.06-0.12-0.08-0.15l0.97-1.01
		c2.26-2.3,3.4-4.01,3.4-5.11c0-0.51-0.16-0.91-0.48-1.2s-0.72-0.44-1.2-0.44c-0.69,0-1.27,0.25-1.73,0.75l-0.25-0.2
		c0.22-0.25,0.43-0.46,0.64-0.63s0.46-0.34,0.78-0.48s0.67-0.21,1.06-0.21c0.39,0,0.75,0.08,1.08,0.25
		c0.33,0.17,0.59,0.41,0.78,0.72c0.19,0.32,0.28,0.68,0.28,1.08c0,0.42-0.08,0.81-0.26,1.18c-0.17,0.37-0.42,0.76-0.75,1.16
		c-0.33,0.4-0.76,0.88-1.3,1.45l-1.11,1.18c-0.01,0.02-0.05,0.07-0.11,0.13c-0.06,0.07-0.12,0.13-0.19,0.21l-0.37,0.4l2.1,0.01
		c0.56,0,0.95-0.01,1.15-0.02s0.39-0.06,0.57-0.14c0.17-0.08,0.33-0.2,0.48-0.37c0.14-0.17,0.3-0.42,0.49-0.76l0.25,0.13l-0.75,1.39
		c-0.04,0.07-0.09,0.17-0.15,0.29c-0.06,0.12-0.12,0.23-0.18,0.34c-0.06,0.11-0.11,0.22-0.16,0.32l-0.2-0.01
		c-0.05-0.13-0.12-0.22-0.22-0.27C201.11,187.29,200.97,187.27,200.78,187.27z"/>
	<path class="st0" d="M205.01,186.67c0-0.06,0.06-0.13,0.17-0.21c0.2-0.1,0.37-0.29,0.51-0.55c0.05-0.07,0.11-0.11,0.18-0.11
		c0.07,0,0.13,0.04,0.17,0.11s0.06,0.12,0.06,0.15c0.17,0.23,0.31,0.37,0.43,0.43c0.08,0.04,0.13,0.06,0.14,0.09
		s0.02,0.06,0.02,0.11c0,0.07-0.04,0.12-0.11,0.17c-0.19,0.09-0.37,0.26-0.52,0.52c-0.06,0.1-0.13,0.16-0.19,0.16
		c-0.08,0-0.15-0.05-0.21-0.14c-0.08-0.15-0.15-0.26-0.21-0.32c-0.06-0.07-0.16-0.14-0.3-0.21c-0.06-0.04-0.1-0.08-0.12-0.09
		C205.02,186.75,205.01,186.71,205.01,186.67z"/>
	<path class="st0" d="M212.9,187.27h-3.16c-0.27,0-0.58,0.02-0.93,0.07c-0.04-0.07-0.06-0.12-0.08-0.15l0.97-1.01
		c2.26-2.3,3.4-4.01,3.4-5.11c0-0.51-0.16-0.91-0.48-1.2s-0.72-0.44-1.2-0.44c-0.69,0-1.27,0.25-1.73,0.75l-0.25-0.2
		c0.22-0.25,0.43-0.46,0.64-0.63s0.46-0.34,0.78-0.48s0.67-0.21,1.06-0.21c0.39,0,0.75,0.08,1.08,0.25
		c0.33,0.17,0.59,0.41,0.78,0.72c0.19,0.32,0.28,0.68,0.28,1.08c0,0.42-0.08,0.81-0.26,1.18c-0.17,0.37-0.42,0.76-0.75,1.16
		c-0.33,0.4-0.76,0.88-1.3,1.45l-1.11,1.18c-0.01,0.02-0.05,0.07-0.11,0.13c-0.06,0.07-0.12,0.13-0.19,0.21l-0.37,0.4l2.1,0.01
		c0.56,0,0.95-0.01,1.15-0.02s0.39-0.06,0.57-0.14c0.17-0.08,0.33-0.2,0.48-0.37c0.14-0.17,0.3-0.42,0.49-0.76l0.25,0.13l-0.75,1.39
		c-0.04,0.07-0.09,0.17-0.15,0.29c-0.06,0.12-0.12,0.23-0.18,0.34c-0.06,0.11-0.11,0.22-0.16,0.32l-0.2-0.01
		c-0.05-0.13-0.12-0.22-0.22-0.27C213.23,187.29,213.09,187.27,212.9,187.27z"/>
	<path class="st0" d="M217.98,179.92l-0.19-0.23c0.78-0.67,1.52-1.01,2.22-1.01c0.34,0,0.65,0.06,0.92,0.19
		c0.28,0.13,0.49,0.31,0.65,0.54s0.23,0.51,0.23,0.82c0,0.66-0.35,1.32-1.06,1.98c0.49,0.31,0.89,0.65,1.2,1
		c0.31,0.35,0.47,0.81,0.47,1.38c0,0.43-0.12,0.86-0.36,1.29s-0.59,0.79-1.04,1.06s-0.98,0.42-1.58,0.42
		c-0.41,0-0.83-0.09-1.25-0.28c-0.42-0.18-0.78-0.48-1.07-0.9l0.66-1.11l0.26,0.15c-0.11,0.17-0.17,0.3-0.17,0.38
		c0,0.13,0.11,0.31,0.32,0.54s0.48,0.42,0.79,0.59c0.32,0.17,0.63,0.25,0.94,0.25c0.3,0,0.58-0.08,0.85-0.25
		c0.27-0.17,0.49-0.39,0.65-0.67c0.16-0.28,0.24-0.59,0.24-0.92c0-0.36-0.08-0.67-0.24-0.95c-0.16-0.27-0.35-0.5-0.57-0.68
		c-0.22-0.18-0.53-0.4-0.92-0.65l-0.43,0.32l-0.17-0.25c0.5-0.39,0.89-0.76,1.18-1.1c0.29-0.34,0.43-0.72,0.43-1.14
		c0-0.39-0.14-0.73-0.42-1s-0.63-0.41-1.04-0.41C219.03,179.29,218.52,179.5,217.98,179.92z"/>
</g>
<path class="st1" d="M148.34,53.42c1.23,0,2.47,0,3.7,0c-0.01-1.93-0.02-3.87-0.03-5.8c-1.15-0.01-2.58-0.17-3.67,0.03
	C148.34,49.58,148.34,51.5,148.34,53.42z"/>
<path class="st2" d="M148.22,53.42c0-1.4,0-2.8,0-4.2c0-0.41,0.13-1.3-0.06-1.57c-0.73,0.18-3.31,0.47-3.64,0.83
	c0,1.65,0,3.29,0,4.94C145.75,53.42,146.99,53.42,148.22,53.42z"/>
<path class="st1" d="M152.17,53.42c1.23,0,2.47,0,3.7,0c0.01-1.62,0.02-3.25,0.03-4.87c-0.93-0.65-2.44-0.54-3.67-0.89
	c-0.02,0.01-0.04,0.02-0.06,0.03C152.17,49.6,152.17,51.51,152.17,53.42z"/>
<path class="st1" d="M144.33,48.55c-1.24,0.71-2.63,1.01-3.67,1.88c0.01,1,0.02,2,0.03,2.99c1.23-0.01,2.47-0.02,3.7-0.03
	c0-1.19,0-2.39,0-3.58C144.39,49.49,144.5,48.74,144.33,48.55z"/>
<path class="st3" d="M155.99,48.55c0.01,1.62,0.02,3.25,0.03,4.87c1.23-0.01,2.47-0.02,3.7-0.03c0.01-0.7,0.17-2.61-0.09-3.05
	C158.43,49.86,157.41,48.94,155.99,48.55z"/>
<path class="st1" d="M159.82,50.49c0.01,0.98,0.02,1.95,0.03,2.93c1.09,0,2.18,0,3.27,0c0-0.01,0-0.02,0-0.03
	c-0.06-0.06-0.12-0.12-0.19-0.19C162.66,52.63,160.45,50.78,159.82,50.49z"/>
<path class="st1" d="M140.48,50.52c-0.3,0.22-0.6,0.43-0.89,0.65c-0.81,0.62-1.7,1.4-2.31,2.22c0,0.01,0,0.02,0,0.03
	c1.1-0.01,2.2-0.02,3.3-0.03c0-0.96,0-1.91,0-2.87C140.54,50.52,140.51,50.52,140.48,50.52z"/>
<path class="st4" d="M159.82,53.52c0,1.93,0,3.87,0,5.8c1.24,0,2.49,0,3.73,0c-0.01-1.81-0.02-3.62-0.03-5.43
	c-0.11-0.13-0.23-0.27-0.34-0.4C162.06,53.5,160.94,53.51,159.82,53.52z"/>
<path class="st1" d="M136.84,59.32c1.24-0.01,2.49-0.02,3.73-0.03c-0.01-1.92-0.02-3.85-0.03-5.77c-0.79-0.01-3.05-0.18-3.52,0.12
	C136.59,54.57,136.83,57.92,136.84,59.32z"/>
<path class="st5" d="M140.66,53.52c0,1.93,0,3.87,0,5.8c1.24,0,2.49,0,3.73,0c0-1.93,0-3.87,0-5.8
	C143.15,53.52,141.91,53.52,140.66,53.52z"/>
<path class="st1" d="M148.22,59.32c0-1.93,0-3.87,0-5.8c-1.24,0.01-2.49,0.02-3.73,0.03c0.01,1.92,0.02,3.85,0.03,5.77
	C145.75,59.32,146.99,59.32,148.22,59.32z"/>
<path class="st4" d="M148.34,53.52c0,1.93,0,3.87,0,5.8c1.23,0,2.47,0,3.7,0c0-1.93,0-3.87,0-5.8
	C150.81,53.52,149.58,53.52,148.34,53.52z"/>
<path class="st1" d="M152.17,53.52c0,1.93,0,3.87,0,5.8c1.23,0,2.47,0,3.7,0c0-1.93,0-3.87,0-5.8
	C154.64,53.52,153.4,53.52,152.17,53.52z"/>
<path class="st1" d="M155.99,53.52c0,1.93,0,3.87,0,5.8c1.24-0.01,2.49-0.02,3.73-0.03c-0.01-1.92-0.02-3.85-0.03-5.77
	C158.46,53.52,157.23,53.52,155.99,53.52z"/>
<path class="st1" d="M136.71,59.32c0-1.75,0-3.5,0-5.24c-0.99,0.86-2.44,3.75-2.84,5.24C134.82,59.32,135.77,59.32,136.71,59.32z"/>
<path class="st1" d="M163.65,54.07c0.01,1.75,0.02,3.5,0.03,5.24c0.95,0,1.89,0,2.84,0c0-0.01,0-0.02,0-0.03
	C166.07,58.08,164.56,54.54,163.65,54.07z"/>
<path class="st1" d="M136.71,59.41c-0.97,0.01-1.93,0.02-2.9,0.03c-0.2,0.8-0.39,1.6-0.59,2.41c-0.06,0.67-0.12,1.34-0.19,2.01
	c0,0.46,0,0.93,0,1.39c1.22-0.01,2.45-0.02,3.67-0.03C136.71,63.28,136.71,61.34,136.71,59.41z"/>
<path class="st3" d="M136.84,59.41c0.01,1.94,0.02,3.89,0.03,5.83c1.23-0.01,2.47-0.02,3.7-0.03c-0.01-1.93-0.02-3.87-0.03-5.8
	C139.3,59.41,138.07,59.41,136.84,59.41z"/>
<path class="st5" d="M140.69,59.41c0,1.94,0,3.89,0,5.83c1.23-0.01,2.47-0.02,3.7-0.03c-0.01-1.93-0.02-3.87-0.03-5.8
	C143.14,59.41,141.92,59.41,140.69,59.41z"/>
<path class="st1" d="M148.22,59.41c-1.24,0.01-2.49,0.02-3.73,0.03c0.01,1.93,0.02,3.87,0.03,5.8c1.23-0.01,2.47-0.02,3.7-0.03
	C148.22,63.28,148.22,61.34,148.22,59.41z"/>
<path class="st4" d="M148.34,59.41c0.01,1.94,0.02,3.89,0.03,5.83c1.22-0.01,2.45-0.02,3.67-0.03c0-1.93,0-3.87,0-5.8
	C150.81,59.41,149.58,59.41,148.34,59.41z"/>
<path class="st1" d="M152.17,59.41c0.01,1.94,0.02,3.89,0.03,5.83c1.22-0.01,2.45-0.02,3.67-0.03c0-1.93,0-3.87,0-5.8
	C154.64,59.41,153.4,59.41,152.17,59.41z"/>
<path class="st5" d="M156.03,59.41c0,1.94,0,3.89,0,5.83c1.23-0.01,2.47-0.02,3.7-0.03c-0.01-1.93-0.02-3.87-0.03-5.8
	C158.47,59.41,157.25,59.41,156.03,59.41z"/>
<path class="st2" d="M163.55,59.41c-1.24,0.01-2.49,0.02-3.73,0.03c0,1.42,0,2.84,0,4.26c0,0.36-0.13,1.29,0.06,1.51
	c1.22,0,2.45,0,3.67,0C163.55,63.28,163.55,61.34,163.55,59.41z"/>
<path class="st1" d="M163.68,59.41c-0.01,1.4-0.02,2.8-0.03,4.2c0,0.48-0.11,1.27,0.06,1.64c1.22-0.01,2.45-0.02,3.67-0.03
	c0.03-2.21-0.2-4.21-0.83-5.8C165.59,59.41,164.63,59.41,163.68,59.41z"/>
<path class="st2" d="M136.71,71.13c0-1.94,0-3.89,0-5.83c-1.23,0.01-2.47,0.02-3.7,0.03c0.01,1.93,0.02,3.87,0.03,5.8
	C134.26,71.13,135.49,71.13,136.71,71.13z"/>
<path class="st4" d="M136.87,65.3c0,1.94,0,3.89,0,5.83c1.23-0.01,2.47-0.02,3.7-0.03c-0.01-1.93-0.02-3.87-0.03-5.8
	C139.31,65.3,138.09,65.3,136.87,65.3z"/>
<path class="st4" d="M140.69,65.3c0,1.94,0,3.89,0,5.83c1.23-0.01,2.47-0.02,3.7-0.03c-0.01-1.93-0.02-3.87-0.03-5.8
	C143.14,65.3,141.92,65.3,140.69,65.3z"/>
<path class="st1" d="M144.52,65.3c0,1.94,0,3.89,0,5.83c1.23-0.01,2.47-0.02,3.7-0.03c-0.01-1.93-0.02-3.87-0.03-5.8
	C146.97,65.3,145.74,65.3,144.52,65.3z"/>
<path class="st6" d="M148.34,65.3c0,1.94,0,3.89,0,5.83c1.23,0,2.47,0,3.7,0c0-1.94,0-3.89,0-5.83
	C150.81,65.3,149.58,65.3,148.34,65.3z"/>
<path class="st4" d="M152.2,65.3c0,1.94,0,3.89,0,5.83c1.22,0,2.45,0,3.67,0c0-1.94,0-3.89,0-5.83
	C154.65,65.3,153.42,65.3,152.2,65.3z"/>
<path class="st4" d="M156.03,65.3c0,1.94,0,3.89,0,5.83c1.23-0.01,2.47-0.02,3.7-0.03c-0.01-1.93-0.02-3.87-0.03-5.8
	C158.47,65.3,157.25,65.3,156.03,65.3z"/>
<path class="st1" d="M159.85,65.3c0,1.94,0,3.89,0,5.83c1.23-0.01,2.47-0.02,3.7-0.03c-0.01-1.93-0.02-3.87-0.03-5.8
	C162.3,65.3,161.07,65.3,159.85,65.3z"/>
<path class="st5" d="M163.68,65.3c0,1.94,0,3.89,0,5.83c1.23-0.01,2.47-0.02,3.7-0.03c-0.01-1.93-0.02-3.87-0.03-5.8
	C166.12,65.3,164.9,65.3,163.68,65.3z"/>
<path class="st1" d="M114.87,71.2c-0.45,0.04-0.91,0.08-1.36,0.12c-0.73,0.14-1.41,0.34-2.07,0.52c0.01,1.73,0.02,3.46,0.03,5.18
	c1.23-0.01,2.47-0.02,3.7-0.03c-0.01-1.93-0.02-3.87-0.03-5.8C115.05,71.2,114.96,71.2,114.87,71.2z"/>
<path class="st2" d="M115.3,71.2c0,1.94,0,3.89,0,5.83c1.23-0.01,2.47-0.02,3.7-0.03c0-1.72,0-3.44,0-5.15
	C117.88,71.56,116.75,71.23,115.3,71.2z"/>
<path class="st5" d="M133.01,71.23c0,1.93,0,3.87,0,5.8c1.23,0,2.47,0,3.7,0c-0.01-1.94-0.02-3.89-0.03-5.83
	C135.46,71.21,134.23,71.22,133.01,71.23z"/>
<path class="st1" d="M136.84,71.23c0,1.93,0,3.87,0,5.8c1.24-0.01,2.49-0.02,3.73-0.03c0-1.35,0-2.69,0-4.04
	c0-0.52,0.12-1.36-0.06-1.76C139.28,71.21,138.06,71.22,136.84,71.23z"/>
<path class="st3" d="M144.39,71.23c-1.24,0-2.49,0-3.73,0c0.01,1.93,0.02,3.87,0.03,5.8c1.23-0.01,2.47-0.02,3.7-0.03
	C144.39,75.07,144.39,73.15,144.39,71.23z"/>
<path class="st6" d="M148.22,77.03c-0.01-1.94-0.02-3.89-0.03-5.83c-1.23,0.02-2.47,0.04-3.7,0.06c0.01,1.92,0.02,3.85,0.03,5.77
	C145.75,77.03,146.99,77.03,148.22,77.03z"/>
<path class="st1" d="M155.99,71.23c0.01,1.93,0.02,3.87,0.03,5.8c1.23-0.01,2.47-0.02,3.7-0.03c0-1.35,0-2.69,0-4.04
	c0-0.52,0.12-1.36-0.06-1.76C158.44,71.21,157.22,71.22,155.99,71.23z"/>
<path class="st1" d="M159.82,71.23c0.01,1.93,0.02,3.87,0.03,5.8c1.23-0.01,2.47-0.02,3.7-0.03c0-1.92,0-3.85,0-5.77
	C162.31,71.23,161.06,71.23,159.82,71.23z"/>
<path class="st5" d="M167.38,77.03c0-1.93,0-3.87,0-5.8c-1.24,0.01-2.49,0.02-3.73,0.03c0.01,1.92,0.02,3.85,0.03,5.77
	C164.91,77.03,166.15,77.03,167.38,77.03z"/>
<path class="st1" d="M184.84,71.2c-0.45,0.04-0.91,0.08-1.36,0.12c-0.73,0.14-1.42,0.33-2.07,0.52c0.01,1.73,0.02,3.46,0.03,5.18
	c1.23-0.01,2.47-0.02,3.7-0.03c-0.01-1.93-0.02-3.87-0.03-5.8C185.03,71.2,184.93,71.2,184.84,71.2z"/>
<path class="st1" d="M185.27,71.2c0,1.94,0,3.89,0,5.83c1.23-0.01,2.47-0.02,3.7-0.03c0-1.72,0-3.44,0-5.15
	C187.83,71.62,186.73,71.24,185.27,71.2z"/>
<path class="st6" d="M148.34,71.23c0,1.93,0,3.87,0,5.8c1.23,0,2.47,0,3.7,0c0-1.93,0-3.87,0-5.8
	C150.81,71.23,149.58,71.23,148.34,71.23z"/>
<path class="st6" d="M152.17,71.23c0,1.93,0,3.87,0,5.8c1.23,0,2.47,0,3.7,0c0-1.93,0-3.87,0-5.8
	C154.64,71.23,153.4,71.23,152.17,71.23z"/>
<path class="st1" d="M111.23,71.91c-0.49,0.23-0.99,0.45-1.48,0.68c-0.78,0.46-1.45,1.02-2.16,1.54c0.02,0.97,0.04,1.93,0.06,2.9
	c1.23-0.01,2.47-0.02,3.7-0.03c0-1.7,0-3.39,0-5.09C111.31,71.91,111.27,71.91,111.23,71.91z"/>
<path class="st1" d="M119.13,77.03c1.23-0.01,2.47-0.02,3.7-0.03c0.01-0.71,0.14-2.62-0.09-2.99c-0.26-0.21-0.51-0.41-0.77-0.62
	c-0.78-0.56-1.8-1.25-2.84-1.48C119.13,73.61,119.13,75.32,119.13,77.03z"/>
<path class="st1" d="M177.59,77.03c1.23-0.01,2.47-0.02,3.7-0.03c0-1.7,0-3.39,0-5.09c-1.08,0.2-3.17,1.5-3.73,2.25
	C177.57,75.11,177.58,76.07,177.59,77.03z"/>
<path class="st1" d="M189.07,71.91c0.01,1.71,0.02,3.41,0.03,5.12c1.23-0.01,2.47-0.02,3.7-0.03c0-0.97,0-1.93,0-2.9
	C192.51,73.58,189.84,72.05,189.07,71.91z"/>
<path class="st1" d="M107.5,77.03c-0.01-0.93-0.02-1.85-0.03-2.78c-0.01,0.02-0.02,0.04-0.03,0.06c-0.54,0.26-1.96,2.08-2.13,2.71
	C106.04,77.03,106.77,77.03,107.5,77.03z"/>
<path class="st1" d="M122.95,74.25c0.01,0.93,0.02,1.85,0.03,2.78c0.72,0,1.44,0,2.16,0C124.98,76.39,123.49,74.5,122.95,74.25z"/>
<path class="st3" d="M177.41,74.25c-0.64,0.85-1.84,1.63-2.13,2.78c0.73-0.01,1.46-0.02,2.19-0.03
	C177.48,76.56,177.57,74.43,177.41,74.25z"/>
<path class="st1" d="M192.92,74.25c0,0.93,0,1.85,0,2.78c0.73,0,1.46,0,2.19,0c0-0.01,0-0.02,0-0.03
	C194.59,76,193.8,74.9,192.92,74.25z"/>
<path class="st1" d="M103.82,82.92c1.22,0,2.45,0,3.67,0c0-1.93,0-3.87,0-5.8c-0.76,0-1.52,0-2.28,0c-0.23,0.48-0.45,0.97-0.68,1.45
	C104.04,79.81,103.83,81.2,103.82,82.92z"/>
<path class="st1" d="M122.95,77.12c0,1.93,0,3.87,0,5.8c1.22,0,2.45,0,3.67,0c0.04-1.89-0.58-4.98-1.45-5.83
	C124.43,77.1,123.69,77.11,122.95,77.12z"/>
<path class="st4" d="M177.47,82.92c0-1.93,0-3.87,0-5.8c-0.77,0.01-1.54,0.02-2.31,0.03c-0.23,0.49-0.45,0.99-0.68,1.48
	c-0.38,0.96-0.45,1.92-0.65,3.12c-0.01,0.39-0.02,0.78-0.03,1.17C175.02,82.92,176.24,82.92,177.47,82.92z"/>
<path class="st1" d="M192.92,77.12c0,1.93,0,3.87,0,5.8c1.22,0,2.45,0,3.67,0c0.04-2.15-0.52-4.65-1.45-5.83
	C194.41,77.1,193.66,77.11,192.92,77.12z"/>
<path class="st3" d="M107.62,77.12c0,1.93,0,3.87,0,5.8c1.24-0.01,2.49-0.02,3.73-0.03c0-1.92,0-3.85,0-5.77
	C110.11,77.12,108.86,77.12,107.62,77.12z"/>
<path class="st4" d="M111.44,77.12c0.01,1.93,0.02,3.87,0.03,5.8c1.23,0,2.47,0,3.7,0c0-1.93,0-3.87,0-5.8
	C113.93,77.12,112.69,77.12,111.44,77.12z"/>
<path class="st1" d="M119,82.92c0-1.93,0-3.87,0-5.8c-1.24,0.01-2.49,0.02-3.73,0.03c0.01,1.92,0.02,3.85,0.03,5.77
	C116.54,82.92,117.77,82.92,119,82.92z"/>
<path class="st6" d="M119.13,77.12c0,1.93,0,3.87,0,5.8c1.23,0,2.47,0,3.7,0c0-1.93,0-3.87,0-5.8
	C121.6,77.12,120.36,77.12,119.13,77.12z"/>
<path class="st1" d="M133.01,77.12c0,1.93,0,3.87,0,5.8c1.23,0,2.47,0,3.7,0c0-1.93,0-3.87,0-5.8
	C135.48,77.12,134.24,77.12,133.01,77.12z"/>
<path class="st4" d="M136.84,77.12c0,1.93,0,3.87,0,5.8c1.24-0.01,2.49-0.02,3.73-0.03c-0.01-1.92-0.02-3.85-0.03-5.77
	C139.3,77.12,138.07,77.12,136.84,77.12z"/>
<path class="st5" d="M140.66,77.12c0,1.93,0,3.87,0,5.8c1.24,0,2.49,0,3.73,0c0-1.93,0-3.87,0-5.8
	C143.15,77.12,141.91,77.12,140.66,77.12z"/>
<path class="st1" d="M148.22,82.92c0-1.93,0-3.87,0-5.8c-1.24,0.01-2.49,0.02-3.73,0.03c0.01,1.92,0.02,3.85,0.03,5.77
	C145.75,82.92,146.99,82.92,148.22,82.92z"/>
<path class="st6" d="M148.34,77.12c0,1.93,0,3.87,0,5.8c1.23,0,2.47,0,3.7,0c0-1.93,0-3.87,0-5.8
	C150.81,77.12,149.58,77.12,148.34,77.12z"/>
<path class="st5" d="M152.17,77.12c0,1.93,0,3.87,0,5.8c1.24-0.01,2.49-0.02,3.73-0.03c0-0.01,0-0.02,0-0.03
	c-0.01-1.91-0.02-3.83-0.03-5.74C154.64,77.12,153.4,77.12,152.17,77.12z"/>
<path class="st5" d="M155.99,77.12c0,1.93,0,3.87,0,5.8c1.24-0.01,2.49-0.02,3.73-0.03c-0.01-1.92-0.02-3.85-0.03-5.77
	C158.46,77.12,157.23,77.12,155.99,77.12z"/>
<path class="st1" d="M159.82,77.12c0,1.93,0,3.87,0,5.8c1.24,0,2.49,0,3.73,0c0-1.93,0-3.87,0-5.8
	C162.31,77.12,161.06,77.12,159.82,77.12z"/>
<path class="st2" d="M167.38,82.92c0-1.93,0-3.87,0-5.8c-1.24,0.01-2.49,0.02-3.73,0.03c0.01,1.92,0.02,3.85,0.03,5.77
	C164.91,82.92,166.15,82.92,167.38,82.92z"/>
<path class="st1" d="M177.59,77.12c0,1.93,0,3.87,0,5.8c1.23,0,2.47,0,3.7,0c0-1.93,0-3.87,0-5.8
	C180.06,77.12,178.83,77.12,177.59,77.12z"/>
<path class="st6" d="M181.42,77.12c0,1.93,0,3.87,0,5.8c1.24-0.01,2.49-0.02,3.73-0.03c0-1.92,0-3.85,0-5.77
	C183.91,77.12,182.66,77.12,181.42,77.12z"/>
<path class="st4" d="M185.24,77.12c0.01,1.93,0.02,3.87,0.03,5.8c1.23-0.01,2.47-0.02,3.7-0.03c0-1.92,0-3.85,0-5.77
	C187.73,77.12,186.49,77.12,185.24,77.12z"/>
<path class="st1" d="M192.8,77.12c-1.24,0.01-2.49,0.02-3.73,0.03c0.01,1.92,0.02,3.85,0.03,5.77c1.23-0.01,2.47-0.02,3.7-0.03
	C192.8,80.97,192.8,79.04,192.8,77.12z"/>
<path class="st4" d="M103.82,83.01c0,1.93,0,3.87,0,5.8c1.22,0,2.45,0,3.67,0c0-1.93,0-3.87,0-5.8
	C106.27,83.01,105.05,83.01,103.82,83.01z"/>
<path class="st1" d="M107.62,83.01c0,1.93,0,3.87,0,5.8c1.24-0.01,2.49-0.02,3.73-0.03c-0.01-1.92-0.02-3.85-0.03-5.77
	C110.09,83.01,108.85,83.01,107.62,83.01z"/>
<path class="st1" d="M111.44,88.81c1.24,0,2.49,0,3.73,0c0-1.93,0-3.87,0-5.8c-1.24,0.01-2.49,0.02-3.73,0.03
	C111.44,84.97,111.44,86.89,111.44,88.81z"/>
<path class="st1" d="M119,88.81c0-1.93,0-3.87,0-5.8c-1.24,0.01-2.49,0.02-3.73,0.03c0.01,1.92,0.02,3.85,0.03,5.77
	C116.54,88.81,117.77,88.81,119,88.81z"/>
<path class="st5" d="M119.13,83.01c0,1.93,0,3.87,0,5.8c1.23,0,2.47,0,3.7,0c0-1.93,0-3.87,0-5.8
	C121.6,83.01,120.36,83.01,119.13,83.01z"/>
<path class="st1" d="M122.95,83.01c0,1.93,0,3.87,0,5.8c1.22,0,2.45,0,3.67,0c0-1.93,0-3.87,0-5.8
	C125.4,83.01,124.18,83.01,122.95,83.01z"/>
<path class="st5" d="M133.01,83.01c0.01,1.94,0.02,3.89,0.03,5.83c1.22-0.01,2.45-0.02,3.67-0.03c0-1.93,0-3.87,0-5.8
	C135.48,83.01,134.24,83.01,133.01,83.01z"/>
<path class="st1" d="M136.84,83.01c0.01,1.94,0.02,3.89,0.03,5.83c1.23-0.01,2.47-0.02,3.7-0.03c-0.01-1.93-0.02-3.87-0.03-5.8
	C139.3,83.01,138.07,83.01,136.84,83.01z"/>
<path class="st5" d="M140.69,83.01c-0.01,1.46-0.02,2.92-0.03,4.38c0,0.35-0.12,1.21,0.06,1.42c1.22,0,2.45,0,3.67,0
	c-0.01-1.93-0.02-3.87-0.03-5.8C143.14,83.01,141.92,83.01,140.69,83.01z"/>
<path class="st2" d="M148.22,83.01c-1.24,0.01-2.49,0.02-3.73,0.03c0.01,1.93,0.02,3.87,0.03,5.8c1.23-0.01,2.47-0.02,3.7-0.03
	C148.22,86.88,148.22,84.94,148.22,83.01z"/>
<path class="st1" d="M148.34,83.01c0.01,1.94,0.02,3.89,0.03,5.83c1.22-0.01,2.45-0.02,3.67-0.03c0-1.93,0-3.87,0-5.8
	C150.81,83.01,149.58,83.01,148.34,83.01z"/>
<path class="st5" d="M155.87,83.01c-1.23,0.01-2.47,0.02-3.7,0.03c0.01,1.93,0.02,3.87,0.03,5.8c0.76,0.01,3.2,0.16,3.7-0.06
	C155.89,86.86,155.88,84.93,155.87,83.01z"/>
<path class="st1" d="M156.03,83.01c0,1.94,0,3.89,0,5.83c1.23-0.01,2.47-0.02,3.7-0.03c-0.01-1.93-0.02-3.87-0.03-5.8
	C158.47,83.01,157.25,83.01,156.03,83.01z"/>
<path class="st4" d="M159.85,83.01c0,1.94,0,3.89,0,5.83c1.23-0.01,2.47-0.02,3.7-0.03c-0.01-1.93-0.02-3.87-0.03-5.8
	C162.3,83.01,161.07,83.01,159.85,83.01z"/>
<path class="st7" d="M167.38,83.01c-1.24,0.01-2.49,0.02-3.73,0.03c0,1.35,0,2.69,0,4.04c0,0.52-0.12,1.36,0.06,1.76
	c1.22-0.01,2.45-0.02,3.67-0.03C167.38,86.88,167.38,84.94,167.38,83.01z"/>
<path class="st1" d="M177.47,88.81c0-1.93,0-3.87,0-5.8c-1.23,0.01-2.47,0.02-3.7,0.03c0.01,1.92,0.02,3.85,0.03,5.77
	C175.02,88.81,176.24,88.81,177.47,88.81z"/>
<path class="st5" d="M177.59,83.01c0,1.93,0,3.87,0,5.8c1.23,0,2.47,0,3.7,0c0-1.93,0-3.87,0-5.8
	C180.06,83.01,178.83,83.01,177.59,83.01z"/>
<path class="st3" d="M181.42,83.01c0,1.93,0,3.87,0,5.8c1.24-0.01,2.49-0.02,3.73-0.03c-0.01-1.92-0.02-3.85-0.03-5.77
	C183.89,83.01,182.65,83.01,181.42,83.01z"/>
<path class="st1" d="M185.24,83.01c0,1.93,0,3.87,0,5.8c1.24,0,2.49,0,3.73,0c-0.01-1.93-0.02-3.87-0.03-5.8
	C187.71,83.01,186.48,83.01,185.24,83.01z"/>
<path class="st6" d="M192.8,88.81c0-1.93,0-3.87,0-5.8c-1.24,0.01-2.49,0.02-3.73,0.03c0.01,1.92,0.02,3.85,0.03,5.77
	C190.33,88.81,191.57,88.81,192.8,88.81z"/>
<path class="st4" d="M192.92,83.01c0,1.93,0,3.87,0,5.8c1.22,0,2.45,0,3.67,0c0-1.93,0-3.87,0-5.8
	C195.37,83.01,194.15,83.01,192.92,83.01z"/>
<path class="st2" d="M107.5,88.9c-1.22,0.01-2.45,0.02-3.67,0.03c0.01,1.93,0.02,3.87,0.03,5.8c1.21-0.01,2.43-0.02,3.64-0.03
	C107.5,92.77,107.5,90.84,107.5,88.9z"/>
<path class="st1" d="M107.65,88.9c-0.01,1.49-0.02,2.98-0.03,4.47c0,0.34-0.1,1.31,0.12,1.33c1.2,0,2.41,0,3.61,0
	c-0.01-1.93-0.02-3.87-0.03-5.8C110.1,88.9,108.87,88.9,107.65,88.9z"/>
<path class="st5" d="M111.48,88.9c-0.01,1.46-0.02,2.92-0.03,4.38c0,0.35-0.12,1.21,0.06,1.42c1.22,0,2.45,0,3.67,0
	c-0.01-1.93-0.02-3.87-0.03-5.8C113.92,88.9,112.7,88.9,111.48,88.9z"/>
<path class="st5" d="M115.3,88.9c-0.01,1.46-0.02,2.92-0.03,4.38c0,0.35-0.12,1.21,0.06,1.42c1.22,0,2.45,0,3.67,0
	c-0.01-1.93-0.02-3.87-0.03-5.8C117.75,88.9,116.52,88.9,115.3,88.9z"/>
<path class="st1" d="M119.13,88.9c0.01,1.94,0.02,3.89,0.03,5.83c1.22-0.01,2.45-0.02,3.67-0.03c-0.01-1.93-0.02-3.87-0.03-5.8
	C121.57,88.9,120.35,88.9,119.13,88.9z"/>
<path class="st1" d="M126.62,88.9c-1.22,0.01-2.45,0.02-3.67,0.03c0.01,1.93,0.02,3.87,0.03,5.8c1.21-0.01,2.43-0.02,3.64-0.03
	C126.62,92.77,126.62,90.84,126.62,88.9z"/>
<path class="st2" d="M136.71,94.74c-0.01-1.94-0.02-3.89-0.03-5.83c-1.21,0-2.43,0-3.64,0c-0.01,0.01-0.02,0.02-0.03,0.03
	c0.01,1.93,0.02,3.87,0.03,5.8C134.26,94.74,135.49,94.74,136.71,94.74z"/>
<path class="st4" d="M136.9,88.9c-0.17,0.32-0.06,1.1-0.06,1.54c0.01,1.43,0.02,2.86,0.03,4.29c1.23-0.01,2.47-0.02,3.7-0.03
	c0-1.92,0-3.85,0-5.77c-0.03-0.01-0.06-0.02-0.09-0.03C139.28,88.9,138.09,88.9,136.9,88.9z"/>
<path class="st1" d="M140.72,88.9c-0.17,0.32-0.06,1.1-0.06,1.54c0.01,1.43,0.02,2.86,0.03,4.29c1.23-0.01,2.47-0.02,3.7-0.03
	c0-1.92,0-3.85,0-5.77c-0.03-0.01-0.06-0.02-0.09-0.03C143.11,88.9,141.92,88.9,140.72,88.9z"/>
<path class="st5" d="M144.55,88.9c-0.17,0.32-0.06,1.1-0.06,1.54c0.01,1.43,0.02,2.86,0.03,4.29c1.23-0.01,2.47-0.02,3.7-0.03
	c0-1.41,0-2.82,0-4.23c0-0.41,0.13-1.3-0.06-1.57C146.96,88.9,145.75,88.9,144.55,88.9z"/>
<path class="st4" d="M148.34,94.74c1.23,0,2.47,0,3.7,0c0-1.42,0-2.84,0-4.26c0-0.41,0.13-1.3-0.06-1.57
	c-1.21,0.01-2.43,0.02-3.64,0.03C148.34,90.87,148.34,92.8,148.34,94.74z"/>
<path class="st1" d="M155.87,94.74c0-1.93,0-3.87,0-5.8c-1.21-0.01-2.43-0.02-3.64-0.03c-0.02,0.01-0.04,0.02-0.06,0.03
	c0.01,1.93,0.02,3.87,0.03,5.8C153.42,94.74,154.65,94.74,155.87,94.74z"/>
<path class="st3" d="M156.03,88.9c0,1.94,0,3.89,0,5.83c1.23-0.01,2.47-0.02,3.7-0.03c0-1.92,0-3.85,0-5.77
	C158.49,88.93,157.26,88.91,156.03,88.9z"/>
<path class="st1" d="M159.88,88.9c-0.17,0.32-0.06,1.1-0.06,1.54c0.01,1.43,0.02,2.86,0.03,4.29c1.23-0.01,2.47-0.02,3.7-0.03
	c0-1.92,0-3.85,0-5.77C162.33,88.93,161.11,88.91,159.88,88.9z"/>
<path class="st5" d="M163.71,88.9c-0.17,0.32-0.06,1.1-0.06,1.54c0.01,1.43,0.02,2.86,0.03,4.29c1.23-0.01,2.47-0.02,3.7-0.03
	c-0.01-1.93-0.02-3.87-0.03-5.8c-0.01,0-0.02,0-0.03,0C166.11,88.9,164.91,88.9,163.71,88.9z"/>
<path class="st4" d="M173.8,88.9c-0.01,1.46-0.02,2.92-0.03,4.38c0,0.35-0.12,1.21,0.06,1.42c1.21,0,2.43,0,3.64,0
	c-0.01-1.93-0.02-3.87-0.03-5.8C176.22,88.9,175.01,88.9,173.8,88.9z"/>
<path class="st1" d="M177.59,88.9c0.01,1.94,0.02,3.89,0.03,5.83c1.22-0.01,2.45-0.02,3.67-0.03c0-1.93,0-3.87,0-5.8
	C180.06,88.9,178.83,88.9,177.59,88.9z"/>
<path class="st5" d="M181.45,88.9c-0.01,1.49-0.02,2.98-0.03,4.47c0,0.34-0.1,1.31,0.12,1.33c1.2,0,2.41,0,3.61,0
	c-0.01-1.93-0.02-3.87-0.03-5.8C183.9,88.9,182.67,88.9,181.45,88.9z"/>
<path class="st5" d="M185.27,88.9c-0.01,1.46-0.02,2.92-0.03,4.38c0,0.35-0.12,1.21,0.06,1.42c1.22,0,2.45,0,3.67,0
	c-0.01-1.93-0.02-3.87-0.03-5.8C187.72,88.9,186.5,88.9,185.27,88.9z"/>
<path class="st1" d="M189.1,88.9c-0.01,1.46-0.02,2.92-0.03,4.38c0,0.35-0.12,1.21,0.06,1.42c1.22,0,2.45,0,3.67,0
	c-0.01-1.93-0.02-3.87-0.03-5.8C191.55,88.9,190.32,88.9,189.1,88.9z"/>
<path class="st1" d="M192.92,88.9c0.01,1.94,0.02,3.89,0.03,5.83c1.21-0.01,2.43-0.02,3.64-0.03c-0.01-1.93-0.02-3.87-0.03-5.8
	C195.35,88.9,194.14,88.9,192.92,88.9z"/>
<path class="st4" d="M103.82,100.63c1.22,0,2.45,0,3.67,0c-0.01-1.94-0.02-3.89-0.03-5.83c-1.21,0.01-2.43,0.02-3.64,0.03
	C103.82,96.76,103.82,98.7,103.82,100.63z"/>
<path class="st6" d="M107.62,100.63c1.24-0.01,2.49-0.02,3.73-0.03c0-1.42,0-2.84,0-4.26c0-0.36,0.13-1.29-0.06-1.51
	c-1.22,0-2.45,0-3.67,0C107.62,96.76,107.62,98.7,107.62,100.63z"/>
<path class="st1" d="M111.48,94.8c0,1.94,0,3.89,0,5.83c1.23-0.01,2.47-0.02,3.7-0.03c-0.01-1.93-0.02-3.87-0.03-5.8
	C113.92,94.8,112.7,94.8,111.48,94.8z"/>
<path class="st1" d="M119,100.63c-0.01-1.94-0.02-3.89-0.03-5.83c-0.54-0.01-3.46-0.13-3.67,0.06c0,1.92,0,3.85,0,5.77
	C116.54,100.63,117.77,100.63,119,100.63z"/>
<path class="st3" d="M119.13,100.63c1.23,0,2.47,0,3.7,0c-0.01-1.94-0.02-3.89-0.03-5.83c-1.22,0.01-2.45,0.02-3.67,0.03
	C119.13,96.76,119.13,98.7,119.13,100.63z"/>
<path class="st4" d="M126.62,100.63c-0.01-1.94-0.02-3.89-0.03-5.83c-1.21,0.01-2.43,0.02-3.64,0.03c0.01,1.93,0.02,3.87,0.03,5.8
	C124.2,100.63,125.41,100.63,126.62,100.63z"/>
<path class="st4" d="M177.47,100.63c-0.01-1.94-0.02-3.89-0.03-5.83c-1.22,0.01-2.45,0.02-3.67,0.03c0.01,1.93,0.02,3.87,0.03,5.8
	C175.02,100.63,176.24,100.63,177.47,100.63z"/>
<path class="st2" d="M177.57,100.61c1.23,0.01,2.47,0.02,3.7,0.03c0-1.94,0.01-3.89,0.01-5.83c-1.22,0-2.45,0-3.67,0
	C177.6,96.75,177.58,98.68,177.57,100.61z"/>
<path class="st1" d="M181.42,100.63c1.24-0.01,2.49-0.02,3.73-0.03c0-1.42,0-2.84,0-4.26c0-0.36,0.13-1.29-0.06-1.51
	c-1.22,0-2.45,0-3.67,0C181.42,96.76,181.42,98.7,181.42,100.63z"/>
<path class="st1" d="M185.27,94.8c0,1.94,0,3.89,0,5.83c1.23-0.01,2.47-0.02,3.7-0.03c-0.01-1.93-0.02-3.87-0.03-5.8
	C187.72,94.8,186.5,94.8,185.27,94.8z"/>
<path class="st3" d="M189.1,94.8c0,1.94,0,3.89,0,5.83c1.23-0.01,2.47-0.02,3.7-0.03c-0.01-1.93-0.02-3.87-0.03-5.8
	C191.55,94.8,190.32,94.8,189.1,94.8z"/>
<path class="st2" d="M192.92,100.63c1.22-0.01,2.45-0.02,3.67-0.03c-0.01-1.93-0.02-3.87-0.03-5.8c-0.76-0.01-3.18-0.16-3.67,0.06
	C192.9,96.78,192.91,98.71,192.92,100.63z"/>
<path class="st1" d="M133.01,94.83c0,1.93,0,3.87,0,5.8c1.23,0,2.47,0,3.7,0c0-1.93,0-3.87,0-5.8
	C135.48,94.83,134.24,94.83,133.01,94.83z"/>
<path class="st4" d="M136.84,94.83c0,1.93,0,3.87,0,5.8c1.24-0.01,2.49-0.02,3.73-0.03c-0.01-1.92-0.02-3.85-0.03-5.77
	C139.3,94.83,138.07,94.83,136.84,94.83z"/>
<path class="st6" d="M140.66,94.83c0,1.93,0,3.87,0,5.8c1.24,0,2.49,0,3.73,0c0-1.93,0-3.87,0-5.8
	C143.15,94.83,141.91,94.83,140.66,94.83z"/>
<path class="st1" d="M148.22,100.63c0-1.93,0-3.87,0-5.8c-1.24,0.01-2.49,0.02-3.73,0.03c0.01,1.92,0.02,3.85,0.03,5.77
	C145.75,100.63,146.99,100.63,148.22,100.63z"/>
<path class="st4" d="M148.34,94.83c0,1.93,0,3.87,0,5.8c1.23,0,2.47,0,3.7,0c0-1.93,0-3.87,0-5.8
	C150.81,94.83,149.58,94.83,148.34,94.83z"/>
<path class="st5" d="M152.17,94.83c0,1.93,0,3.87,0,5.8c1.23,0,2.47,0,3.7,0c0.01-1.92,0.02-3.85,0.03-5.77
	c-0.01-0.01-0.02-0.02-0.03-0.03C154.64,94.83,153.4,94.83,152.17,94.83z"/>
<path class="st1" d="M155.99,94.83c0,1.93,0,3.87,0,5.8c1.24-0.01,2.49-0.02,3.73-0.03c-0.01-1.92-0.02-3.85-0.03-5.77
	C158.46,94.83,157.23,94.83,155.99,94.83z"/>
<path class="st4" d="M159.82,94.83c0,1.93,0,3.87,0,5.8c1.24,0,2.49,0,3.73,0c0-1.93,0-3.87,0-5.8
	C162.31,94.83,161.06,94.83,159.82,94.83z"/>
<path class="st5" d="M167.38,100.63c0-1.93,0-3.87,0-5.8c-1.24,0.01-2.49,0.02-3.73,0.03c0.01,1.92,0.02,3.85,0.03,5.77
	C164.91,100.63,166.15,100.63,167.38,100.63z"/>
<path class="st1" d="M103.82,100.72c0,1.93,0,3.87,0,5.8c1.22,0,2.45,0,3.67,0c0-1.93,0-3.87,0-5.8
	C106.27,100.72,105.05,100.72,103.82,100.72z"/>
<path class="st1" d="M107.62,100.72c0,1.93,0,3.87,0,5.8c1.24-0.01,2.49-0.02,3.73-0.03c-0.01-1.92-0.02-3.85-0.03-5.77
	C110.09,100.72,108.85,100.72,107.62,100.72z"/>
<path class="st1" d="M111.44,100.72c0,1.93,0,3.87,0,5.8c1.24,0,2.49,0,3.73,0c0-1.93,0-3.87,0-5.8
	C113.93,100.72,112.69,100.72,111.44,100.72z"/>
<path class="st5" d="M119,106.52c0-1.93,0-3.87,0-5.8c-1.24,0.01-2.49,0.02-3.73,0.03c0.01,1.92,0.02,3.85,0.03,5.77
	C116.54,106.52,117.77,106.52,119,106.52z"/>
<path class="st1" d="M119.13,100.72c0,1.93,0,3.87,0,5.8c1.23,0,2.47,0,3.7,0c0-1.93,0-3.87,0-5.8
	C121.6,100.72,120.36,100.72,119.13,100.72z"/>
<path class="st4" d="M122.95,100.72c0,1.93,0,3.87,0,5.8c1.22,0,2.45,0,3.67,0c0-1.93,0-3.87,0-5.8
	C125.4,100.72,124.18,100.72,122.95,100.72z"/>
<path class="st5" d="M133.01,100.72c0,1.93,0,3.87,0,5.8c1.23,0,2.47,0,3.7,0c0-1.93,0-3.87,0-5.8
	C135.48,100.72,134.24,100.72,133.01,100.72z"/>
<path class="st4" d="M136.84,100.72c0,1.93,0,3.87,0,5.8c1.24,0,2.49,0,3.73,0c-0.01-1.93-0.02-3.87-0.03-5.8
	C139.3,100.72,138.07,100.72,136.84,100.72z"/>
<path class="st1" d="M140.66,106.52c1.24,0,2.49,0,3.73,0c0-1.93,0-3.87,0-5.8c-1.24,0.01-2.49,0.02-3.73,0.03
	C140.66,102.67,140.66,104.6,140.66,106.52z"/>
<path class="st1" d="M148.22,106.52c0-1.93,0-3.87,0-5.8c-1.24,0.01-2.49,0.02-3.73,0.03c0.01,1.92,0.02,3.85,0.03,5.77
	C145.75,106.52,146.99,106.52,148.22,106.52z"/>
<path class="st3" d="M148.34,100.72c0,1.93,0,3.87,0,5.8c1.23,0,2.47,0,3.7,0c0-1.93,0-3.87,0-5.8
	C150.81,100.72,149.58,100.72,148.34,100.72z"/>
<path class="st1" d="M152.17,100.72c0,1.93,0,3.87,0,5.8c1.23,0,2.47,0,3.7,0c0.01-1.92,0.02-3.85,0.03-5.77
	c-0.01-0.01-0.02-0.02-0.03-0.03C154.64,100.72,153.4,100.72,152.17,100.72z"/>
<path class="st5" d="M155.99,106.52c1.24,0,2.49,0,3.73,0c-0.01-1.93-0.02-3.87-0.03-5.8c-1.23,0.01-2.47,0.02-3.7,0.03
	C155.99,102.67,155.99,104.6,155.99,106.52z"/>
<path class="st4" d="M159.82,106.52c1.24,0,2.49,0,3.73,0c0-1.93,0-3.87,0-5.8c-1.24,0.01-2.49,0.02-3.73,0.03
	C159.82,102.67,159.82,104.6,159.82,106.52z"/>
<path class="st1" d="M167.38,106.52c0-1.93,0-3.87,0-5.8c-1.24,0.01-2.49,0.02-3.73,0.03c0.01,1.92,0.02,3.85,0.03,5.77
	C164.91,106.52,166.15,106.52,167.38,106.52z"/>
<path class="st4" d="M177.47,106.52c0-1.93,0-3.87,0-5.8c-1.23,0.01-2.47,0.02-3.7,0.03c0.01,1.92,0.02,3.85,0.03,5.77
	C175.02,106.52,176.24,106.52,177.47,106.52z"/>
<path class="st1" d="M177.59,100.72c0,1.93,0,3.87,0,5.8c1.23,0,2.47,0,3.7,0c0-1.93,0-3.87,0-5.8
	C180.06,100.72,178.83,100.72,177.59,100.72z"/>
<path class="st5" d="M181.42,100.72c0,1.93,0,3.87,0,5.8c1.24-0.01,2.49-0.02,3.73-0.03c-0.01-1.92-0.02-3.85-0.03-5.77
	C183.89,100.72,182.65,100.72,181.42,100.72z"/>
<path class="st1" d="M185.24,100.72c0,1.93,0,3.87,0,5.8c1.24,0,2.49,0,3.73,0c0-1.93,0-3.87,0-5.8
	C187.73,100.72,186.49,100.72,185.24,100.72z"/>
<path class="st1" d="M192.8,106.52c0-1.93,0-3.87,0-5.8c-1.24,0.01-2.49,0.02-3.73,0.03c0.01,1.92,0.02,3.85,0.03,5.77
	C190.33,106.52,191.57,106.52,192.8,106.52z"/>
<path class="st1" d="M192.92,106.52c1.22,0,2.45,0,3.67,0c0-1.93,0-3.87,0-5.8c-1.23,0.01-2.47,0.02-3.7,0.03
	C192.9,102.67,192.91,104.6,192.92,106.52z"/>
<path class="st4" d="M103.82,106.61c0,1.42,0,2.84,0,4.26c0,0.41-0.13,1.3,0.06,1.57c1.2-0.01,2.41-0.02,3.61-0.03
	c0-1.93,0-3.87,0-5.8C106.27,106.61,105.05,106.61,103.82,106.61z"/>
<path class="st5" d="M107.62,106.61c0,1.93,0,3.87,0,5.8c1.24-0.01,2.49-0.02,3.73-0.03c-0.01-1.92-0.02-3.85-0.03-5.77
	C110.09,106.61,108.85,106.61,107.62,106.61z"/>
<path class="st1" d="M115.18,106.61c-1.24,0.01-2.49,0.02-3.73,0.03c0,1.92,0,3.85,0,5.77c1.22,0.01,2.45,0.02,3.67,0.03
	c0.02-0.01,0.04-0.02,0.06-0.03C115.18,110.48,115.18,108.55,115.18,106.61z"/>
<path class="st5" d="M119,106.61c-1.24,0.01-2.49,0.02-3.73,0.03c0,1.43,0,2.86,0,4.29c0,0.4-0.12,1.28,0.09,1.51
	c1.19,0,2.39,0,3.58,0c0.02-0.01,0.04-0.02,0.06-0.03C119,110.48,119,108.55,119,106.61z"/>
<path class="st1" d="M119.13,106.61c0,1.42,0,2.84,0,4.26c0,0.41-0.13,1.3,0.06,1.57c1.19,0,2.39,0,3.58,0
	c0.02-0.01,0.04-0.02,0.06-0.03c0-1.93,0-3.87,0-5.8C121.6,106.61,120.36,106.61,119.13,106.61z"/>
<path class="st2" d="M122.95,106.61c0,1.42,0,2.84,0,4.26c0,0.41-0.13,1.3,0.06,1.57c1.2-0.01,2.41-0.02,3.61-0.03
	c0-1.93,0-3.87,0-5.8C125.4,106.61,124.18,106.61,122.95,106.61z"/>
<path class="st5" d="M136.71,112.44c0-1.94,0-3.89,0-5.83c-1.23,0.01-2.47,0.02-3.7,0.03c0.01,1.93,0.02,3.87,0.03,5.8
	C134.26,112.44,135.49,112.44,136.71,112.44z"/>
<path class="st4" d="M136.87,106.61c0,1.94,0,3.89,0,5.83c1.23-0.01,2.47-0.02,3.7-0.03c-0.01-1.93-0.02-3.87-0.03-5.8
	C139.31,106.61,138.09,106.61,136.87,106.61z"/>
<path class="st1" d="M140.69,106.61c0,1.94,0,3.89,0,5.83c1.23-0.01,2.47-0.02,3.7-0.03c-0.01-1.93-0.02-3.87-0.03-5.8
	C143.14,106.61,141.92,106.61,140.69,106.61z"/>
<path class="st5" d="M144.52,106.61c0,1.94,0,3.89,0,5.83c1.23-0.01,2.47-0.02,3.7-0.03c-0.01-1.93-0.02-3.87-0.03-5.8
	C146.97,106.61,145.74,106.61,144.52,106.61z"/>
<path class="st1" d="M148.34,106.61c0,1.94,0,3.89,0,5.83c1.23,0,2.47,0,3.7,0c0-1.94,0-3.89,0-5.83
	C150.81,106.61,149.58,106.61,148.34,106.61z"/>
<path class="st1" d="M155.87,112.44c0-1.94,0-3.89,0-5.83c-1.23,0.01-2.47,0.02-3.7,0.03c0.01,1.93,0.02,3.87,0.03,5.8
	C153.42,112.44,154.65,112.44,155.87,112.44z"/>
<path class="st6" d="M156.03,106.61c0,1.94,0,3.89,0,5.83c1.23-0.01,2.47-0.02,3.7-0.03c-0.01-1.93-0.02-3.87-0.03-5.8
	C158.47,106.61,157.25,106.61,156.03,106.61z"/>
<path class="st4" d="M159.85,106.61c0,1.94,0,3.89,0,5.83c1.23-0.01,2.47-0.02,3.7-0.03c-0.01-1.93-0.02-3.87-0.03-5.8
	C162.3,106.61,161.07,106.61,159.85,106.61z"/>
<path class="st5" d="M163.68,106.61c0,1.94,0,3.89,0,5.83c1.23-0.01,2.47-0.02,3.7-0.03c-0.01-1.93-0.02-3.87-0.03-5.8
	C166.12,106.61,164.9,106.61,163.68,106.61z"/>
<path class="st2" d="M177.47,106.61c-1.23,0.01-2.47,0.02-3.7,0.03c0,1.43,0,2.86,0,4.29c0,0.4-0.12,1.28,0.09,1.51
	c1.2-0.01,2.41-0.02,3.61-0.03C177.47,110.48,177.47,108.55,177.47,106.61z"/>
<path class="st1" d="M177.59,106.61c0.01,1.94,0.02,3.89,0.03,5.83c1.2,0,2.41,0,3.61,0c0.02-0.01,0.04-0.02,0.06-0.03
	c0-1.93,0-3.87,0-5.8C180.06,106.61,178.83,106.61,177.59,106.61z"/>
<path class="st5" d="M181.42,106.61c0,1.93,0,3.87,0,5.8c1.24-0.01,2.49-0.02,3.73-0.03c-0.01-1.92-0.02-3.85-0.03-5.77
	C183.89,106.61,182.65,106.61,181.42,106.61z"/>
<path class="st1" d="M185.27,106.61c-0.01,1.93-0.02,3.87-0.03,5.8c1.24,0,2.49,0,3.73,0c-0.01-1.93-0.02-3.87-0.03-5.8
	C187.72,106.61,186.5,106.61,185.27,106.61z"/>
<path class="st5" d="M189.1,106.61c-0.01,1.4-0.02,2.8-0.03,4.2c0,0.48-0.11,1.27,0.06,1.64c1.2,0,2.41,0,3.61,0
	c0.02-0.01,0.04-0.02,0.06-0.03c-0.01-1.93-0.02-3.87-0.03-5.8C191.55,106.61,190.32,106.61,189.1,106.61z"/>
<path class="st4" d="M196.6,106.61c-1.22,0-2.45,0-3.67,0c0,0.44,0,0.88,0,1.33c0,1.09,0,2.18,0,3.27c0,0.34-0.1,1.02,0.06,1.23
	c1.2-0.01,2.41-0.02,3.61-0.03C196.6,110.48,196.6,108.55,196.6,106.61z"/>
<path class="st4" d="M103.82,112.51c0,1.32,0,2.63,0,3.95c0,0.61-0.08,1.37,0.06,1.88c1.2,0,2.41,0,3.61,0c0-1.94,0-3.89,0-5.83
	C106.27,112.51,105.05,112.51,103.82,112.51z"/>
<path class="st4" d="M107.65,112.51c0,1.94,0,3.89,0,5.83c1.23-0.01,2.47-0.02,3.7-0.03c-0.01-1.93-0.02-3.87-0.03-5.8
	C110.1,112.51,108.87,112.51,107.65,112.51z"/>
<path class="st3" d="M111.48,112.51c0,1.94,0,3.89,0,5.83c1.23-0.01,2.47-0.02,3.7-0.03c-0.01-1.93-0.02-3.87-0.03-5.8
	C113.92,112.51,112.7,112.51,111.48,112.51z"/>
<path class="st1" d="M115.3,112.51c0,1.94,0,3.89,0,5.83c1.23-0.01,2.47-0.02,3.7-0.03c-0.01-1.93-0.02-3.87-0.03-5.8
	C117.75,112.51,116.52,112.51,115.3,112.51z"/>
<path class="st4" d="M119.13,112.51c0,1.94,0,3.89,0,5.83c1.23-0.01,2.47-0.02,3.7-0.03c-0.01-1.93-0.02-3.87-0.03-5.8
	C121.57,112.51,120.35,112.51,119.13,112.51z"/>
<path class="st6" d="M126.62,112.51c-1.22,0.01-2.45,0.02-3.67,0.03c0.01,1.93,0.02,3.87,0.03,5.8c1.2-0.01,2.41-0.02,3.61-0.03
	C126.6,116.37,126.61,114.44,126.62,112.51z"/>
<path class="st5" d="M133.01,118.34c1.23,0,2.47,0,3.7,0c-0.01-1.94-0.02-3.89-0.03-5.83c-1.22,0.01-2.45,0.02-3.67,0.03
	C133.01,114.47,133.01,116.4,133.01,118.34z"/>
<path class="st5" d="M136.84,118.34c1.24-0.01,2.49-0.02,3.73-0.03c0-1.35,0-2.69,0-4.04c0-0.52,0.12-1.36-0.06-1.76
	c-1.22,0.01-2.45,0.02-3.67,0.03C136.84,114.47,136.84,116.4,136.84,118.34z"/>
<path class="st3" d="M144.39,118.34c-0.01-1.94-0.02-3.89-0.03-5.83c-1.23,0.01-2.47,0.02-3.7,0.03c0.01,1.93,0.02,3.87,0.03,5.8
	C141.93,118.34,143.16,118.34,144.39,118.34z"/>
<path class="st1" d="M148.22,118.34c-0.01-1.94-0.02-3.89-0.03-5.83c-0.54-0.01-3.46-0.13-3.67,0.06c0,1.92,0,3.85,0,5.77
	C145.75,118.34,146.99,118.34,148.22,118.34z"/>
<path class="st5" d="M148.34,118.34c1.23,0,2.47,0,3.7,0c-0.01-1.94-0.02-3.89-0.03-5.83c-1.22,0.01-2.45,0.02-3.67,0.03
	C148.34,114.47,148.34,116.4,148.34,118.34z"/>
<path class="st5" d="M152.17,118.34c1.23,0,2.47,0,3.7,0c-0.01-1.94-0.02-3.89-0.03-5.83c-1.22,0.01-2.45,0.02-3.67,0.03
	C152.17,114.47,152.17,116.4,152.17,118.34z"/>
<path class="st1" d="M155.99,118.34c1.24-0.01,2.49-0.02,3.73-0.03c-0.01-1.93-0.02-3.87-0.03-5.8c-1.23,0.01-2.47,0.02-3.7,0.03
	C155.99,114.47,155.99,116.4,155.99,118.34z"/>
<path class="st5" d="M163.55,118.34c-0.01-1.94-0.02-3.89-0.03-5.83c-1.23,0.01-2.47,0.02-3.7,0.03c0.01,1.93,0.02,3.87,0.03,5.8
	C161.09,118.34,162.32,118.34,163.55,118.34z"/>
<path class="st5" d="M167.38,118.34c-0.01-1.94-0.02-3.89-0.03-5.83c-0.76-0.01-3.2-0.16-3.7,0.06c0.01,1.92,0.02,3.85,0.03,5.77
	C164.91,118.34,166.15,118.34,167.38,118.34z"/>
<path class="st1" d="M173.8,112.51c-0.01,0.53-0.02,1.07-0.03,1.6c0,1.2-0.23,3.24,0.09,4.23c1.2-0.01,2.41-0.02,3.61-0.03
	c-0.01-1.93-0.02-3.87-0.03-5.8C176.22,112.51,175.01,112.51,173.8,112.51z"/>
<path class="st4" d="M177.59,112.51c0,1.94,0,3.89,0,5.83c1.23-0.01,2.47-0.02,3.7-0.03c0-1.93,0-3.87,0-5.8
	C180.06,112.51,178.83,112.51,177.59,112.51z"/>
<path class="st3" d="M181.42,112.51c0.01,1.94,0.02,3.89,0.03,5.83c1.23-0.01,2.47-0.02,3.7-0.03c-0.01-1.93-0.02-3.87-0.03-5.8
	C183.89,112.51,182.65,112.51,181.42,112.51z"/>
<path class="st1" d="M185.27,112.51c0,1.94,0,3.89,0,5.83c1.23-0.01,2.47-0.02,3.7-0.03c-0.01-1.93-0.02-3.87-0.03-5.8
	C187.72,112.51,186.5,112.51,185.27,112.51z"/>
<path class="st4" d="M189.1,112.51c0,1.94,0,3.89,0,5.83c1.23-0.01,2.47-0.02,3.7-0.03c-0.01-1.93-0.02-3.87-0.03-5.8
	C191.55,112.51,190.32,112.51,189.1,112.51z"/>
<path class="st4" d="M192.92,112.51c0,1.94,0,3.89,0,5.83c0.64,0,1.28,0,1.91,0c0.39,0,1.46,0.15,1.7-0.06
	c0.02-0.56,0.04-1.11,0.06-1.67c-0.01-1.37-0.02-2.74-0.03-4.1C195.35,112.51,194.14,112.51,192.92,112.51z"/>
<line class="st8" x1="81.61" y1="137.24" x2="219.18" y2="137.24"/>
</svg>
