<?xml version="1.0" encoding="utf-8"?>
<!-- Generator: Adobe Illustrator 26.5.0, SVG Export Plug-In . SVG Version: 6.00 Build 0)  -->
<svg version="1.1" id="Camada_1" xmlns="http://www.w3.org/2000/svg" xmlns:xlink="http://www.w3.org/1999/xlink" x="0px" y="0px"
	 viewBox="0 0 300 62.2" style="enable-background:new 0 0 300 62.2;" xml:space="preserve" fill="currentColor">
<g>
	<g>
		<path class="st0" d="M165.3,27.8c0.7,0.7,1.4,1.2,1.8,1.4l-0.1,0.2c-0.6-0.3-1.3-0.7-2-1.3c-0.8,0.8-1.8,1.4-2.8,1.4
			c-1.3,0-3.3-0.6-3.3-2.8c0-1.2,0.9-2.2,1.9-3.2c-0.8-1.3-1.3-2.5-1.3-3.6c0-1.5,0.6-2.6,2.7-2.6c1.5,0,2.2,1,2.2,2.5
			c0,1.2-1.3,2.6-2.5,3.9c0.9,1.4,2,2.8,3.1,3.8c1.2-1.3,2-2.9,2-2.9l0.3,0C167.1,25.3,166.3,26.7,165.3,27.8z M164.7,27.8
			c-1.2-1-2.4-2.2-3.3-3.5c-0.8,0.9-1.5,1.9-1.5,2.7c0,1.3,1,2,2.3,2C163.1,28.9,164,28.4,164.7,27.8z M161.5,22.9
			c1-1.1,2-2.1,2-3.4c0-1.1-0.7-1.7-1.2-1.7c-1.3,0-1.8,1-1.8,2.1C160.5,20.8,160.9,21.8,161.5,22.9z"/>
	</g>
	<g>
		<path class="st0" d="M42,32.7v0.4h-4.6v-0.4c0.8,0,1.4-0.6,1.4-1.4V13.7l-6.9,13.6c1.1,2,2.2,3.6,3.3,3.7l0.1,0.3
			c-2.1,0.2-3.6-1.4-4.7-3.3h0l-0.2-0.4c-0.4-0.6-0.7-1.2-1-1.8l-5.2-9.2c-0.1-0.2-0.2-0.3-0.3-0.5c-0.5-0.9-1-1.7-1.5-2.6v17.7
			c0,0.8,0.6,1.4,1.4,1.4v0.4H20v-0.4c0.7,0,1.3-0.6,1.3-1.3V12c-1.1-1.8-2.3-3-3.5-2.9l-0.1-0.4c2.4-0.3,4,1.2,5.3,3.1h0l0.3,0.5
			c0.5,0.8,0.9,1.5,1.3,2.3l6,10.6l0,0l0.7,1.2l7.4-14.6h3.1v0.4c-0.7,0-1.2,0.6-1.2,1.2v17.9C40.6,32.1,41.2,32.7,42,32.7z"/>
		<path class="st0" d="M63.5,33.1h-4.7v-0.4c0.7,0,1.2-0.7,0.9-1.3l-1.9-5.3h-9.2l-1.9,5.3c-0.2,0.6,0.2,1.3,0.9,1.3v0.4h-3.9v-0.4
			c0.8,0,1.6-0.5,1.9-1.3l7.1-19.6h1.8l7.1,19.6c0.3,0.8,1,1.3,1.9,1.3V33.1z M57.4,25.1l-4.2-11.7L49,25.1H57.4z"/>
		<path class="st0" d="M83,33.3c-6.4,0.2-3.4-9.7-8.2-10.4c-0.6,0-1.1,0-1.7,0h-4.7v8.4c0,0.8,0.6,1.4,1.4,1.4v0.4h-4.6v-0.4
			c0.8,0,1.4-0.6,1.4-1.4V13.5c0-0.8-0.6-1.4-1.4-1.4v-0.4h8c4.6-0.2,7.9,0.6,7.9,5.6c0,3.6-1.7,4.9-4,5.3
			c4.7,2.3,2.4,10.2,5.8,10.2L83,33.3z M68.4,21.9H73c3.8,0,6.4,0,6.4-4.6c0-4.1-2.5-4.6-6.1-4.6h-4.8V21.9z"/>
		<path class="st0" d="M101.8,26c-0.7,2.7-3.2,7.5-8.3,7.5c-6.3,0-8.9-4.9-8.9-11c0-6.1,2.9-11,8.9-11c3.7,0,6.1,1.7,7.5,4.4
			c0.3,0.6-0.1,1.2-0.7,1.2h0c-0.3,0-0.6-0.2-0.8-0.5c-1-2.4-2.9-4.1-6-4.1c-5,0-7.1,5.2-7.1,10s1.8,10,7.1,10
			c4.1,0,7.3-4.1,7.9-6.6C101.5,25.6,102,25.4,101.8,26z"/>
		<path class="st0" d="M118.2,11.8l0.7,2.6h-0.4c0-0.5-0.7-1.6-1.6-1.6h-9.3V22h6.6c0.8,0,1.4-0.6,1.4-1.4h0.4v3.8h-0.4
			c0-0.8-0.6-1.4-1.4-1.4h-6.6v9.1h9.3c0.9,0,1.6-1,1.6-1.6h0.4l-0.5,2.6h-13.9v-0.4c0.8,0,1.4-0.6,1.4-1.4V13.6
			c0-0.8-0.6-1.4-1.4-1.4v-0.4L118.2,11.8L118.2,11.8z"/>
		<path class="st0" d="M135.9,30.5l-0.5,2.6h-13.9v-0.4c0.8,0,1.4-0.6,1.4-1.4V13.6c0-0.8-0.6-1.4-1.4-1.4v-0.4h4.6v0.4
			c-0.8,0-1.4,0.6-1.4,1.4v18.5h9.3c0.9,0,1.5-0.7,1.6-1.6L135.9,30.5L135.9,30.5z"/>
		<path class="st0" d="M154.6,22.5c0,6.1-2.9,11-8.9,11c-6.3,0-8.9-4.9-8.9-11c0-6.1,2.9-11,8.9-11
			C152.1,11.4,154.6,16.4,154.6,22.5z M152.8,22.5c0-4.9-1.8-10-7.1-10c-5,0-7,5.2-7,10s1.8,10,7,10
			C150.8,32.5,152.8,27.3,152.8,22.5z"/>
	</g>
	<g>
		<path class="st0" d="M189.9,36.1l-0.1,0.4c-3.3,0.3-5.2-5.4-6-7.6l-1.4-3.8c-1.9-1.1-4.3-0.7-5.8-0.3c-1,0.2-1.8,0.2-2.5,0.1
			l-2.4,6.6c-0.2,0.6,0.2,1.3,0.9,1.3v0.4h-3.9v-0.4c0.8,0,1.6-0.5,1.9-1.3l2.5-6.9c-1.1-0.5-1.8-1.5-2.1-2.6l0.4-0.2
			c0.3,1,0.9,1.8,1.8,2.2l4.3-12.1h1.8l7,19.2C187.5,33.4,188.7,35.8,189.9,36.1z M182.1,24l-3.8-10.6l-3.9,10.8
			c0.6,0.1,1.3,0.1,2.1,0C178.1,23.9,180.1,23.1,182.1,24z"/>
		<path class="st0" d="M207.2,33.3c-6.4,0.2-3.4-9.7-8.1-10.4c-0.6,0-1.1,0-1.7,0h-4.7v8.4c0,0.8,0.6,1.4,1.4,1.4v0.4h-4.6v-0.4
			c0.8,0,1.4-0.6,1.4-1.4V13.5c0-0.8-0.6-1.4-1.4-1.4v-0.4h8c4.6-0.2,7.9,0.6,7.9,5.6c0,3.6-1.7,4.9-4,5.3
			c4.7,2.3,2.4,10.2,5.8,10.2L207.2,33.3z M192.6,21.9h4.5c3.8,0,6.4,0,6.4-4.6c0-4.1-2.5-4.6-6.1-4.6h-4.8V21.9z"/>
		<path class="st0" d="M223.3,13.4L216.6,24v7.3c0,0.8,0.6,1.4,1.4,1.4v0.4h-4.6v-0.4c0.8,0,1.4-0.6,1.4-1.4v-7.2h0l-7.3-11.6
			c-1.8-2.6-2.8-2.2-4.3-2.3l0-0.3c2.9-0.4,4.6,0.2,5.8,2l0,0l0,0.1c0.2,0.3,0.4,0.5,0.5,0.9l6.5,10.5l6.2-9.9
			c0.3-0.5,0-1.1-0.6-1.1v-0.4h3.9v0.4C224.6,12.2,223.8,12.7,223.3,13.4z"/>
		<path class="st0" d="M242.6,33.1h-4.7v-0.4c0.7,0,1.1-0.7,0.9-1.3l-1.9-5.3h-9.2l-1.9,5.3c-0.2,0.6,0.2,1.3,0.9,1.3v0.4h-3.9v-0.4
			c0.8,0,1.6-0.5,1.9-1.3l7.1-19.6h1.8l7.1,19.6c0.3,0.8,1,1.3,1.9,1.3L242.6,33.1L242.6,33.1z M236.6,25.1l-4.2-11.7l-4.2,11.7
			H236.6z"/>
		<path class="st0" d="M262.3,11.8v0.4c-0.8,0-1.4,0.6-1.4,1.4v19.5h-1l-13.1-19.8v18.1c0,0.7,0.6,1.3,1.3,1.3v0.4h-3.7v-0.4
			c0.8,0,1.4-0.6,1.4-1.4V11.9c-1.2-1.6-2.4-2.7-3.6-2.5L242,9.1c2.4-0.5,4.2,0.9,5.6,2.8l0,0l0,0c1,1.3,1.8,2.7,2.6,3.9
			c0,0,0,0,0,0l9.6,14.5V13.6c0-0.8-0.6-1.4-1.4-1.4v-0.4L262.3,11.8L262.3,11.8z"/>
		<path class="st0" d="M282.3,32.2c-0.5,1-1.2,2.8-3.6,2.8c-3.3,0-6.2-1.9-10.5-1.9h-3.2v-0.4c0.8,0,1.4-0.6,1.4-1.4V13.6
			c0-0.8-0.6-1.4-1.4-1.4v-0.4H279l0.5,2.6h-0.4c-0.1-0.8-0.7-1.6-1.5-1.6h-9.3V22h6.6c0.8,0,1.4-0.6,1.4-1.4h0.4v3.8h-0.4
			c0-0.8-0.6-1.4-1.4-1.4h-6.6v9.1c5.2,0,7.6,1.9,10.4,1.9c1.5,0,2.7-0.4,3.4-2L282.3,32.2z"/>
	</g>
	<g>
		<path class="st0" d="M76.4,43.2l0-0.3l0.6,0c0.6,0,1,0,1.1,0c0.5,0,0.9,0,1.2,0h0.5l0,0.2c-0.3,0-0.5,0.1-0.7,0.2
			c-0.2,0.1-0.3,0.2-0.3,0.4c0,0.2,0.2,0.8,0.5,1.7c0.3,1,0.7,2,1.1,3s0.6,1.6,0.6,1.6l0.3-0.7c0-0.1,0.1-0.2,0.2-0.5
			s0.2-0.5,0.3-0.7l1.2-2.6c-0.3-0.8-0.6-1.3-0.7-1.5s-0.2-0.4-0.2-0.4c-0.2-0.2-0.4-0.4-0.8-0.4l0-0.3c0.3,0,0.6,0,0.9,0
			c0.8,0,1.5,0,2.2-0.1l0,0.2c-0.3,0-0.6,0.1-0.7,0.1c-0.2,0.1-0.2,0.1-0.3,0.2c0,0.1-0.1,0.1-0.1,0.2c0,0.1,0.1,0.6,0.4,1.5
			s0.6,1.8,1,2.9c0.4,1.1,0.6,1.7,0.8,2c0.3-0.8,0.7-1.7,1-2.6s0.6-1.6,0.8-2.3c0.2-0.6,0.3-1,0.3-1.2c0-0.4-0.1-0.6-0.4-0.7
			s-0.6-0.1-0.9-0.2l-0.1-0.2h0.7c0.6,0,1.3,0,2,0l0.5,0l0,0.2c-0.3,0-0.5,0.1-0.7,0.2s-0.3,0.3-0.5,0.6c-0.2,0.3-0.3,0.7-0.5,1.2
			l-1.3,3.7c-0.2,0.6-0.4,1-0.4,1.1c-0.1,0.2-0.2,0.4-0.2,0.6s-0.1,0.4-0.2,0.6s-0.2,0.5-0.3,0.8l-0.2,0c-0.1-0.4-0.2-0.8-0.4-1.1
			s-0.2-0.7-0.3-1c-0.1-0.3-0.2-0.5-0.2-0.6L83,46c-0.1,0.1-0.1,0.3-0.2,0.5s-0.2,0.4-0.2,0.5l-0.7,1.6c-0.2,0.4-0.3,0.8-0.4,1.1
			c-0.1,0.3-0.2,0.7-0.4,1.1c-0.1,0.4-0.2,0.8-0.3,1.1h-0.2l-0.8-2.3c-0.1-0.3-0.2-0.8-0.4-1.3s-0.4-1.1-0.6-1.7
			c-0.2-0.6-0.4-1.2-0.6-1.7c-0.2-0.5-0.3-0.9-0.5-1.1c-0.2-0.3-0.3-0.5-0.5-0.6C76.9,43.2,76.6,43.2,76.4,43.2z"/>
		<path class="st0" d="M98,49.6h0.2c-0.1,0.5-0.2,0.9-0.2,1.2s-0.2,0.6-0.3,0.9c-0.2,0-0.3,0-0.6,0s-0.6,0-1.1,0c-0.3,0-0.6,0-0.9,0
			s-0.4,0-0.4,0c-0.3,0-0.6,0-1,0s-0.8,0-1.4,0s-0.9,0-1.2,0.1l0-0.2c0.1,0,0.3-0.1,0.4-0.1s0.2-0.1,0.3-0.1s0.1-0.1,0.1-0.2
			c0-0.1,0-0.2,0.1-0.4c0-0.2,0.1-0.5,0.1-0.9c0-0.4,0-0.9,0.1-1.5s0-0.9,0-1l-0.1-2.1c0-0.7,0-1.1-0.1-1.3s-0.1-0.4-0.2-0.5
			c-0.1-0.1-0.3-0.1-0.6-0.2c0-0.1,0-0.1,0-0.2h4.3c0.5,0,1.2,0,2.2-0.1c0,0.4-0.1,0.8-0.1,1.1s-0.1,0.6-0.2,0.6
			c-0.1,0-0.2,0-0.2-0.1c0,0,0-0.1,0-0.2s0-0.2,0-0.2c0-0.3-0.2-0.5-0.6-0.6c-0.4-0.1-0.8-0.1-1.4-0.1c-0.7,0-1.3,0-2.1,0.1
			c-0.1,0.7-0.1,1.4-0.1,1.9c0,0.3,0,0.7,0,1.1s0,0.6,0,0.6c0.1,0,0.4,0,1,0c0.9,0,1.6,0,1.9-0.1c0.2,0,0.3-0.1,0.4-0.1
			s0.1-0.1,0.2-0.2c0.1-0.1,0.1-0.3,0.2-0.6l0.2,0c0,0.5,0,0.9,0,1.2s0,0.8,0,1.3h-0.2c0-0.4-0.1-0.7-0.2-0.9s-0.3-0.3-0.6-0.3
			c-0.3,0-0.9-0.1-1.7-0.1c-0.5,0-0.9,0-1.2,0.1l0,0.9c0,1.2,0,2.1,0.1,2.7c0.1,0,0.2,0.1,0.3,0.1c0.1,0,0.2,0.1,0.3,0.1
			s0.2,0,0.4,0.1s0.4,0,0.7,0c0.7,0,1.2-0.1,1.6-0.1c0.4-0.1,0.7-0.3,0.9-0.5C97.7,50.3,97.9,50,98,49.6z"/>
		<path class="st0" d="M100.3,43.3l0-0.2c1.2,0,2.2-0.1,3-0.1c0.3,0,0.6-0.1,0.9-0.1c0.7,0,1.3,0.1,1.9,0.3c0.6,0.2,1.1,0.5,1.6,0.9
			s0.8,0.8,1.1,1.4c0.3,0.5,0.4,1.1,0.4,1.8c0,0.8-0.2,1.6-0.6,2.2c-0.4,0.7-1,1.2-1.8,1.6s-1.7,0.6-2.6,0.6c-0.1,0-0.2,0-0.5,0
			c-0.3,0-0.5,0-0.5,0c-0.2,0-0.3,0-0.5,0c-0.1,0-0.3,0-0.6,0c-0.3,0-0.5,0-0.8,0c-0.2,0-0.4,0-0.5,0l-0.7,0v-0.3
			c0.5,0,0.8-0.1,0.9-0.3c0.1-0.2,0.2-1.4,0.2-3.3c0-1.3,0-2.3-0.1-2.9s-0.1-1.1-0.2-1.2C100.9,43.3,100.6,43.2,100.3,43.3z
			 M108.1,47.1c0-0.9-0.2-1.6-0.6-2.2s-0.9-1.1-1.5-1.4c-0.6-0.3-1.3-0.5-1.9-0.5c-0.6,0-1.2,0.1-1.7,0.4c0,0.2-0.1,1-0.1,2.2
			s0,2.3,0,3.2c0,0,0,0.2,0,0.5s0,0.6,0,0.9c0,0.3,0,0.5,0,0.5c0.4,0.1,0.8,0.2,1,0.3s0.5,0.1,0.9,0.1c0.9,0,1.7-0.2,2.3-0.6
			s1-0.9,1.3-1.5C107.9,48.5,108.1,47.8,108.1,47.1z"/>
		<path class="st0" d="M111.4,43.3l0-0.2c1.2,0,2.2-0.1,3-0.1c0.3,0,0.6-0.1,0.9-0.1c0.7,0,1.3,0.1,1.9,0.3c0.6,0.2,1.1,0.5,1.6,0.9
			s0.8,0.8,1.1,1.4c0.3,0.5,0.4,1.1,0.4,1.8c0,0.8-0.2,1.6-0.6,2.2c-0.4,0.7-1,1.2-1.8,1.6s-1.7,0.6-2.6,0.6c-0.1,0-0.2,0-0.5,0
			c-0.3,0-0.5,0-0.5,0c-0.2,0-0.3,0-0.5,0c-0.1,0-0.3,0-0.6,0c-0.3,0-0.5,0-0.8,0c-0.2,0-0.4,0-0.5,0l-0.7,0v-0.3
			c0.5,0,0.8-0.1,0.9-0.3c0.1-0.2,0.2-1.4,0.2-3.3c0-1.3,0-2.3-0.1-2.9s-0.1-1.1-0.2-1.2C112.1,43.3,111.8,43.2,111.4,43.3z
			 M119.2,47.1c0-0.9-0.2-1.6-0.6-2.2s-0.9-1.1-1.5-1.4c-0.6-0.3-1.3-0.5-1.9-0.5c-0.6,0-1.2,0.1-1.7,0.4c0,0.2-0.1,1-0.1,2.2
			s0,2.3,0,3.2c0,0,0,0.2,0,0.5s0,0.6,0,0.9c0,0.3,0,0.5,0,0.5c0.4,0.1,0.8,0.2,1,0.3s0.5,0.1,0.9,0.1c0.9,0,1.7-0.2,2.3-0.6
			s1-0.9,1.3-1.5C119.1,48.5,119.2,47.8,119.2,47.1z"/>
		<path class="st0" d="M122.6,43.2v-0.3c0.5,0,0.8,0,0.9,0.1c0.4,0,0.8,0,0.9,0c0.1,0,0.3,0,0.7,0s0.8,0,1.2-0.1v0.3
			c-0.4,0-0.7,0-0.8,0.1s-0.2,0.1-0.3,0.2c-0.2,0.3-0.2,1.4-0.2,3.2c0,1.3,0,2.1,0,2.4s0,0.7,0,1.1c0,0.3,0,0.5,0.1,0.7
			s0.2,0.2,0.3,0.3s0.5,0.1,0.9,0.1l0,0.2c-0.1,0-0.2,0-0.4,0s-0.4,0-0.6,0s-0.3,0-0.5,0s-0.2,0-0.4,0c-0.2,0-0.4,0-0.5,0
			s-0.3,0-0.5,0c-0.2,0-0.4,0-0.6,0s-0.3,0-0.3,0l0-0.2c0.5,0,0.8-0.1,1-0.2c0.2-0.1,0.3-0.2,0.3-0.4c0.1-0.2,0.2-0.7,0.2-1.4
			s0-1.4,0-2.1c0-0.7,0-1.6-0.1-2.9c0-0.4-0.1-0.6-0.1-0.8c-0.1-0.1-0.2-0.3-0.4-0.3C123.3,43.2,123,43.2,122.6,43.2z"/>
		<path class="st0" d="M128.1,43.1v-0.3c0.4,0,0.7,0,0.8,0.1c0.1,0,0.2,0,0.4,0l0.6,0c0.3,0.3,0.6,0.7,0.9,1.1
			c0.4,0.4,0.8,0.8,1.2,1.2c0.5,0.4,0.7,0.7,0.8,0.7l3.9,3.8c0-0.6,0-1.4,0-2.5v-1.3c0-0.7,0-1.2,0-1.6c0-0.4-0.1-0.6-0.2-0.8
			c-0.1-0.2-0.2-0.3-0.4-0.3c-0.1-0.1-0.4-0.1-0.8-0.2l0.1-0.2c0.1,0,0.2,0,0.3,0c0.1,0,0.3,0,0.4,0c0.1,0,0.3,0,0.5,0
			c0.1,0,0.2,0,0.4,0s0.2,0,0.3,0l0.9,0l0,0.2c-0.3,0-0.5,0.1-0.6,0.2c-0.1,0.1-0.2,0.2-0.2,0.4c-0.1,0.4-0.1,1.1-0.2,2.1
			c0,1.1-0.1,2.1-0.1,3.1c0,0.4,0,0.7,0,1.1c0,0.4,0,0.7,0,0.9s0,0.5,0,0.8l-0.3,0c-0.3-0.7-1.2-1.7-2.8-3.2l-2.5-2.4
			c-0.1-0.1-0.3-0.2-0.6-0.6c-0.3-0.3-0.7-0.7-1.2-1.2l-0.1,4.1c0,0.8,0,1.4,0.1,1.8c0.1,0.3,0.2,0.6,0.4,0.7s0.6,0.2,1.1,0.3
			c0,0.1,0,0.2,0,0.2c-0.1,0-0.3,0-0.6,0c-0.4,0-0.6,0-0.7,0c-0.1,0-0.3,0-0.7,0c-0.1,0-0.2,0-0.3,0c-0.1,0-0.3,0-0.5,0
			c-0.1,0-0.1,0-0.1,0s0-0.1,0-0.1c0-0.1,0-0.1,0-0.1c0,0,0.1,0,0.1,0c0.2,0,0.3-0.1,0.4-0.1c0.1-0.1,0.2-0.1,0.2-0.3
			c0-0.1,0.1-0.4,0.1-0.7s0-0.7,0-1.2l0.1-3.2c0-0.7,0-1.2,0-1.6c0-0.3-0.1-0.6-0.3-0.8C128.8,43.3,128.5,43.2,128.1,43.1z"/>
		<path class="st0" d="M148.9,47.3v0.2c-0.2,0.1-0.3,0.1-0.3,0.1c0,0-0.1,0.1-0.1,0.2c0,0.1,0,0.1,0,0.2c0,0.1,0,0.2,0,0.4
			s0,0.6,0,1.1c0,0.4,0,0.7,0,0.9c0,0.2,0,0.3,0.1,0.4c0,0.1,0.1,0.1,0.2,0.2l-0.1,0.1c-0.1,0-0.4,0.1-0.9,0.2
			c-0.4,0.1-0.7,0.1-1,0.2c-0.3,0-0.6,0.1-0.8,0.1c-0.2,0-0.4,0-0.7,0c-0.8,0-1.5-0.1-2.1-0.4c-0.6-0.3-1.1-0.6-1.5-1
			c-0.4-0.4-0.7-0.9-0.9-1.4c-0.2-0.5-0.3-1-0.3-1.6c0-0.7,0.1-1.3,0.4-1.9s0.7-1,1.1-1.4c0.5-0.4,1-0.7,1.6-0.9
			c0.6-0.2,1.2-0.3,1.9-0.3c0.2,0,0.5,0,0.7,0.1s0.4,0.1,0.6,0.1c0.2,0,0.3,0.1,0.3,0.1c0.2,0.1,0.3,0.1,0.4,0.1
			c0.2-0.2,0.4-0.3,0.4-0.3c0.1,0,0.1,0.1,0.1,0.2c0,0.1,0,0.4,0.1,0.8s0.1,0.7,0.1,0.9c0,0.1,0,0.1-0.1,0.1c0,0-0.1,0-0.1,0
			c0,0,0-0.1-0.1-0.1c-0.2-0.4-0.5-0.8-0.9-1.1c-0.5-0.3-1.1-0.5-1.8-0.5c-0.7,0-1.4,0.2-2,0.6s-1,0.9-1.3,1.5
			c-0.3,0.6-0.4,1.2-0.4,1.9c0,0.5,0.1,0.9,0.3,1.4c0.2,0.5,0.4,0.9,0.8,1.4c0.4,0.4,0.8,0.8,1.3,1c0.5,0.2,1,0.4,1.6,0.4
			c0.5,0,0.9-0.1,1.3-0.2c0.4-0.1,0.6-0.3,0.7-0.4c0.1-0.1,0.1-0.2,0.1-0.3c0-0.1,0-0.5,0-1c0-0.6,0-0.9-0.1-1.1
			c0-0.2-0.1-0.4-0.3-0.4s-0.4-0.1-0.9-0.1c-0.2,0-0.3,0-0.4,0l0-0.3c0.6,0,1.2,0,1.7,0C148,47.4,148.5,47.3,148.9,47.3z"/>
		<path class="st0" d="M158.4,53.5V41.4h0.6v12.2H158.4z"/>
		<path class="st0" d="M168.8,47.5c0-0.9,0.1-1.8,0.4-2.4c0.3-0.7,0.7-1.2,1.2-1.5s1-0.5,1.5-0.5c0.4,0,0.8,0.1,1.2,0.3
			c0.4,0.2,0.7,0.5,0.9,0.9s0.5,0.8,0.6,1.4c0.1,0.5,0.2,1.1,0.2,1.7c0,0.8-0.1,1.6-0.4,2.2s-0.6,1.2-1.1,1.6
			c-0.5,0.4-1,0.6-1.6,0.6c-0.6,0-1.1-0.2-1.6-0.6c-0.4-0.4-0.8-0.9-1-1.6C168.9,48.8,168.8,48.2,168.8,47.5z M169.8,46.8
			c0,0.3,0,0.7,0.1,1.1c0,0.5,0.1,0.9,0.3,1.5c0.1,0.5,0.4,1,0.6,1.3c0.3,0.4,0.7,0.6,1.1,0.6c0.4,0,0.8-0.2,1.1-0.5
			s0.5-0.8,0.6-1.3s0.2-1.1,0.2-1.7c0-0.4,0-1-0.1-1.6c-0.1-0.7-0.2-1.3-0.5-1.8c-0.1-0.2-0.2-0.3-0.3-0.5c-0.1-0.2-0.3-0.3-0.5-0.4
			c-0.2-0.1-0.4-0.2-0.7-0.2c-0.2,0-0.4,0-0.6,0.1c-0.2,0.1-0.4,0.3-0.6,0.5c-0.2,0.3-0.4,0.6-0.5,1.1
			C169.8,45.5,169.8,46.1,169.8,46.8z"/>
		<path class="st0" d="M177.9,51.8l-0.1-0.2c0.9-0.4,1.6-0.8,2.2-1.4c0.5-0.6,0.9-1.2,1.1-1.8c0.2-0.6,0.3-1.2,0.3-1.8
			c0-0.6-0.1-1.1-0.2-1.5c-0.1-0.4-0.3-0.8-0.5-1c-0.2-0.3-0.4-0.5-0.7-0.6s-0.5-0.2-0.7-0.2c-0.3,0-0.5,0.1-0.8,0.2
			c-0.2,0.1-0.4,0.4-0.6,0.7c-0.1,0.3-0.2,0.6-0.2,1c0,0.4,0.1,0.9,0.2,1.2c0.2,0.4,0.4,0.7,0.7,0.9c0.3,0.2,0.6,0.4,0.9,0.4
			c0.2,0,0.4-0.1,0.6-0.2c0.2-0.1,0.4-0.2,0.6-0.4v0.3c-0.3,0.2-0.6,0.4-0.7,0.5c-0.2,0.1-0.3,0.2-0.5,0.2c-0.1,0-0.3,0.1-0.5,0.1
			c-0.4,0-0.7-0.1-1-0.3c-0.3-0.2-0.6-0.5-0.8-0.9c-0.2-0.4-0.3-0.8-0.3-1.2c0-0.5,0.1-0.9,0.3-1.4c0.2-0.4,0.5-0.8,0.9-1.1
			c0.4-0.3,0.8-0.4,1.3-0.4c0.4,0,0.7,0.1,1,0.2s0.6,0.4,0.9,0.7c0.3,0.3,0.5,0.6,0.6,1.1c0.1,0.4,0.2,0.9,0.2,1.4
			c0,0.4,0,0.7-0.1,1.2c-0.1,0.4-0.2,0.9-0.5,1.4s-0.5,0.9-0.9,1.3c-0.2,0.2-0.5,0.5-0.8,0.7c-0.3,0.2-0.6,0.4-0.8,0.5
			c-0.2,0.1-0.5,0.2-0.8,0.3C178.2,51.7,178,51.8,177.9,51.8z"/>
		<path class="st0" d="M185,51c0-0.1,0.1-0.1,0.2-0.2c0.2-0.1,0.4-0.3,0.5-0.6c0-0.1,0.1-0.1,0.2-0.1c0.1,0,0.1,0,0.2,0.1
			c0,0.1,0.1,0.1,0.1,0.1c0.2,0.2,0.3,0.4,0.4,0.4c0.1,0,0.1,0.1,0.1,0.1c0,0,0,0.1,0,0.1c0,0.1,0,0.1-0.1,0.2
			c-0.2,0.1-0.4,0.3-0.5,0.5c-0.1,0.1-0.1,0.2-0.2,0.2c-0.1,0-0.1-0.1-0.2-0.1c-0.1-0.1-0.1-0.3-0.2-0.3c-0.1-0.1-0.2-0.1-0.3-0.2
			c-0.1,0-0.1-0.1-0.1-0.1C185.1,51,185,51,185,51z"/>
		<path class="st0" d="M190,51.6l0-0.3c0.3,0,0.6,0,0.8-0.1s0.4-0.2,0.5-0.5c0.1-0.2,0.1-0.6,0.1-1.2c0-0.6,0.1-1.2,0.1-1.9
			s0-1.3,0-1.8c0-1,0-1.6-0.1-1.8c0-0.2-0.2-0.3-0.4-0.3c-0.2,0-0.6-0.1-1-0.1l0-0.3c0.6,0,1.2,0,1.6-0.1c0.4,0,0.8-0.1,1-0.1
			c0.3,0,0.6-0.1,0.9-0.2l0.1,0.3l-0.5,0.1c-0.3,0.1-0.4,0.2-0.5,0.3c-0.1,0.1-0.1,0.4-0.2,0.6c0,0.4-0.1,0.9-0.1,1.3
			c0,0.4,0,0.9,0,1.2c0,0.4,0,0.9,0,1.5c0,1.7,0.1,2.6,0.2,2.8c0.1,0.1,0.2,0.1,0.4,0.2s0.5,0.1,1,0.1l0,0.3c-0.6,0-1.1-0.1-1.3-0.1
			C191.6,51.6,190.7,51.6,190,51.6z"/>
		<path class="st0" d="M201,51.6h-3.2c-0.3,0-0.6,0-0.9,0.1c0-0.1-0.1-0.1-0.1-0.1l1-1c2.3-2.3,3.4-4,3.4-5.1c0-0.5-0.2-0.9-0.5-1.2
			c-0.3-0.3-0.7-0.4-1.2-0.4c-0.7,0-1.3,0.2-1.7,0.8l-0.2-0.2c0.2-0.2,0.4-0.5,0.6-0.6c0.2-0.2,0.5-0.3,0.8-0.5
			c0.3-0.1,0.7-0.2,1.1-0.2c0.4,0,0.8,0.1,1.1,0.2c0.3,0.2,0.6,0.4,0.8,0.7c0.2,0.3,0.3,0.7,0.3,1.1c0,0.4-0.1,0.8-0.3,1.2
			c-0.2,0.4-0.4,0.8-0.8,1.2c-0.3,0.4-0.8,0.9-1.3,1.4l-1.1,1.2c0,0,0,0.1-0.1,0.1c-0.1,0.1-0.1,0.1-0.2,0.2l-0.4,0.4l2.1,0
			c0.6,0,0.9,0,1.1,0c0.2,0,0.4-0.1,0.6-0.1c0.2-0.1,0.3-0.2,0.5-0.4c0.1-0.2,0.3-0.4,0.5-0.8l0.2,0.1l-0.8,1.4
			c0,0.1-0.1,0.2-0.1,0.3s-0.1,0.2-0.2,0.3s-0.1,0.2-0.2,0.3l-0.2,0c0-0.1-0.1-0.2-0.2-0.3C201.3,51.6,201.2,51.6,201,51.6z"/>
		<path class="st0" d="M205.2,51c0-0.1,0.1-0.1,0.2-0.2c0.2-0.1,0.4-0.3,0.5-0.6c0.1-0.1,0.1-0.1,0.2-0.1c0.1,0,0.1,0,0.2,0.1
			c0,0.1,0.1,0.1,0.1,0.1c0.2,0.2,0.3,0.4,0.4,0.4c0.1,0,0.1,0.1,0.1,0.1c0,0,0,0.1,0,0.1c0,0.1,0,0.1-0.1,0.2
			c-0.2,0.1-0.4,0.3-0.5,0.5c-0.1,0.1-0.1,0.2-0.2,0.2c-0.1,0-0.1-0.1-0.2-0.1c-0.1-0.1-0.1-0.3-0.2-0.3c-0.1-0.1-0.2-0.1-0.3-0.2
			c-0.1,0-0.1-0.1-0.1-0.1C205.2,51,205.2,51,205.2,51z"/>
		<path class="st0" d="M213.1,51.6h-3.2c-0.3,0-0.6,0-0.9,0.1c0-0.1-0.1-0.1-0.1-0.1l1-1c2.3-2.3,3.4-4,3.4-5.1
			c0-0.5-0.2-0.9-0.5-1.2c-0.3-0.3-0.7-0.4-1.2-0.4c-0.7,0-1.3,0.2-1.7,0.8l-0.2-0.2c0.2-0.2,0.4-0.5,0.6-0.6
			c0.2-0.2,0.5-0.3,0.8-0.5c0.3-0.1,0.7-0.2,1.1-0.2c0.4,0,0.8,0.1,1.1,0.2c0.3,0.2,0.6,0.4,0.8,0.7c0.2,0.3,0.3,0.7,0.3,1.1
			c0,0.4-0.1,0.8-0.3,1.2c-0.2,0.4-0.4,0.8-0.8,1.2c-0.3,0.4-0.8,0.9-1.3,1.4l-1.1,1.2c0,0,0,0.1-0.1,0.1c-0.1,0.1-0.1,0.1-0.2,0.2
			l-0.4,0.4l2.1,0c0.6,0,0.9,0,1.1,0c0.2,0,0.4-0.1,0.6-0.1c0.2-0.1,0.3-0.2,0.5-0.4c0.1-0.2,0.3-0.4,0.5-0.8l0.2,0.1l-0.8,1.4
			c0,0.1-0.1,0.2-0.1,0.3s-0.1,0.2-0.2,0.3s-0.1,0.2-0.2,0.3l-0.2,0c0-0.1-0.1-0.2-0.2-0.3C213.4,51.6,213.3,51.6,213.1,51.6z"/>
		<path class="st0" d="M218.2,44.2L218,44c0.8-0.7,1.5-1,2.2-1c0.3,0,0.6,0.1,0.9,0.2c0.3,0.1,0.5,0.3,0.6,0.5
			c0.2,0.2,0.2,0.5,0.2,0.8c0,0.7-0.4,1.3-1.1,2c0.5,0.3,0.9,0.6,1.2,1s0.5,0.8,0.5,1.4c0,0.4-0.1,0.9-0.4,1.3
			c-0.2,0.4-0.6,0.8-1,1.1c-0.5,0.3-1,0.4-1.6,0.4c-0.4,0-0.8-0.1-1.2-0.3c-0.4-0.2-0.8-0.5-1.1-0.9l0.7-1.1l0.3,0.1
			c-0.1,0.2-0.2,0.3-0.2,0.4c0,0.1,0.1,0.3,0.3,0.5c0.2,0.2,0.5,0.4,0.8,0.6c0.3,0.2,0.6,0.2,0.9,0.2c0.3,0,0.6-0.1,0.9-0.2
			c0.3-0.2,0.5-0.4,0.6-0.7s0.2-0.6,0.2-0.9c0-0.4-0.1-0.7-0.2-0.9c-0.2-0.3-0.4-0.5-0.6-0.7s-0.5-0.4-0.9-0.6l-0.4,0.3l-0.2-0.2
			c0.5-0.4,0.9-0.8,1.2-1.1c0.3-0.3,0.4-0.7,0.4-1.1c0-0.4-0.1-0.7-0.4-1s-0.6-0.4-1-0.4C219.2,43.6,218.7,43.8,218.2,44.2z"/>
	</g>
</g>
</svg>
